<svg id="_" version="1.1" xmlns="http://www.w3.org/2000/svg" width="850" viewBox="0 0 850 48" xml:space="preserve"><g><svg width="48" height="48" viewBox="0 0 1200 800" xmlns="http://www.w3.org/2000/svg" xml:space="preserve"><path d="m0-7.203-12.072-25.006c.063-.947.111-1.898.111-2.853 0-28.346-29.478-54.471-79.069-75.389v17.393a348.81 348.81 0 0 0-15.117-5.593v-8.108c-70.874-25.56-176.383-41.778-294.241-41.778-102.973 0-196.529 12.38-265.791 32.554v28.246h-.002v-34.188c-70.96 22.55-114.954 53.877-114.954 88.515 0 5.46 1.101 10.838 3.217 16.113l-7.228 12.867s-5.792 7.512 4.406 23.362c8.994 13.977 54.048 68.685 77.827 97.335 10.214 14.687 17.141 23.734 17.746 22.859.955-1.386-6.351-28.961-26.635-60.423-9.466-16.895-20.768-39.283-27.554-55.819 18.942 11.99 130.23 68.029 357.232 67.801C-150.13 90.453-47.009 17.834-35.691 7.948c-3.955 15.889-17.468 48.033-28.245 70.638-17.706 32.331-24.12 60.478-23.296 61.87.524.878 6.565-8.441 15.476-23.543C-51.025 87.37-11.739 30.974-3.889 16.608 5.007.323 0-7.203 0-7.203" style="fill:#a52b00;fill-rule:nonzero" transform="translate(1009.4 506.362)"/><path d="m0 204.135-79.343-58.446c-.745-2.6-1.49-5.201-2.26-7.781l26.062-37.754c2.66-3.84 3.196-8.832 1.469-13.211-1.731-4.358-5.515-7.482-9.99-8.247l-44.066-7.479c-1.709-3.485-3.498-6.916-5.294-10.319l18.515-42.388c1.903-4.317 1.505-9.335-1.022-13.254-2.517-3.937-6.786-6.237-11.338-6.058L-151.991.823a368.174 368.174 0 0 0-7.067-8.937l10.278-45.432c1.042-4.612-.274-9.443-3.487-12.794-3.195-3.339-7.838-4.722-12.253-3.639l-43.562 10.709a375.714 375.714 0 0 0-8.588-7.365l1.567-46.641c.168-4.721-2.033-9.208-5.812-11.829-3.777-2.636-8.57-3.032-12.701-1.074l-40.638 19.321a453.612 453.612 0 0 0-9.892-5.537l-7.181-45.961c-.729-4.656-3.724-8.612-7.919-10.418-4.185-1.817-8.976-1.228-12.648 1.536l-36.232 27.185a385.098 385.098 0 0 0-10.779-3.407l-15.617-43.585c-1.588-4.443-5.25-7.706-9.716-8.624-4.45-.909-9.028.632-12.114 4.08l-30.499 34.119c-3.685-.423-7.377-.81-11.076-1.131l-23.549-39.676c-2.384-4.018-6.597-6.464-11.139-6.464-4.529 0-8.75 2.446-11.118 6.464l-23.555 39.676a399.69 399.69 0 0 0-11.088 1.131l-30.499-34.119c-3.09-3.448-7.684-4.989-12.122-4.08-4.46.93-8.128 4.181-9.707 8.624l-15.629 43.585a427.446 427.446 0 0 0-10.78 3.407l-36.22-27.185c-3.683-2.774-8.478-3.361-12.668-1.536-4.181 1.806-7.188 5.762-7.913 10.418l-7.186 45.961a442.679 442.679 0 0 0-9.895 5.537l-40.634-19.321a12.602 12.602 0 0 0-12.704 1.074c-3.773 2.621-5.98 7.108-5.81 11.829l1.562 46.641a427.292 427.292 0 0 0-8.591 7.365l-43.554-10.709c-4.423-1.074-9.062.3-12.265 3.639-3.221 3.351-4.526 8.182-3.491 12.794l10.257 45.432a439.731 439.731 0 0 0-7.042 8.937l-44.724-1.625c-4.513-.135-8.821 2.121-11.343 6.058-2.527 3.919-2.91 8.937-1.029 13.254l18.528 42.388c-1.799 3.403-3.586 6.834-5.309 10.319l-44.063 7.479c-4.479.754-8.252 3.876-9.994 8.247-1.728 4.379-1.167 9.371 1.474 13.211l26.066 37.754c-.201.667-.387 1.339-.587 2.008l-73.696 78.285s-11.296 8.851 5.147 29.654c14.5 18.351 88.951 91.096 128.271 129.205 16.606 19.348 27.984 31.329 29.172 30.293 1.876-1.645-7.972-36.847-40.682-78.149-25.216-37.056-57.941-94.049-50.267-100.618 0 0 8.729-11.081 26.242-19.057.641.512-.662-.507 0 0 0 0 369.595 170.491 712.429 2.884 39.164-7.025 62.873 13.955 62.873 13.955 8.176 4.74-12.996 63.344-30.407 102.137-23.679 44.05-27.151 78.422-25.144 79.614 1.268.757 9.883-12.353 22.172-33.217C-67.814 332.649-10.492 252.1 0 232.534c11.895-22.182 0-28.399 0-28.399" style="fill:#f74c00;fill-rule:nonzero" transform="translate(1079.49 294.885)"/><path d="M0 232.466S53.179 230 123.032 159.004l9.898-21.979S24.513 29.177 193.048-45.266c0 0-14.755 24.112-10.426 117.272 0 0 50.815-17.649 65.714-99.94 0 0 74.12 97.724-80.502 189.377 0 0-72.54 116.289-174.805 105.15L0 232.466z" style="fill:#f74c00;fill-rule:nonzero" transform="translate(917.896 244.679)"/><path d="M0-78.192s36.935-40.443 73.871 0c0 0 29.022 53.927 0 80.887 0 0-47.487 37.748-73.871 0 0 0-31.658-29.659 0-80.887" style="fill-rule:nonzero" transform="translate(676.997 488.361)"/><path d="M0 .004C0 15.75-9.282 28.518-20.732 28.518c-11.448 0-20.73-12.768-20.73-28.514 0-15.75 9.282-28.518 20.73-28.518C-9.282-28.514 0-15.746 0 .004" style="fill:#fff;fill-rule:nonzero" transform="translate(719.761 425.169)"/><path d="M0-83.609s63.355-28.052 80.648 34.562c0 0 18.114 72.98-52.03 77.099 0 0-89.444-17.228-28.618-111.661" style="fill-rule:nonzero" transform="translate(512.148 482.736)"/><path d="M0 .002c0 16.239-9.572 29.409-21.381 29.409-11.804 0-21.379-13.17-21.379-29.409 0-16.244 9.575-29.411 21.379-29.411C-9.572-29.409 0-16.242 0 .002" style="fill:#fff;fill-rule:nonzero" transform="translate(543.968 426.204)"/><path d="m0-40.271 80.796-6.484s-2.738 13.006-13.279 22.769c0 0-27.79 30.47-59.673-2.533 0 0-5.217-5.629-7.844-13.752" style="fill-rule:nonzero" transform="translate(593.317 576.574)"/><path d="M0 190.741c-.667 0-1.321.049-1.973.101-26.234-5.971-99.973-25.185-119.464-56.363 0 0 99.227-112.872-55.86-185.019l18.057 124.878s-47.809-31.949-58.126-101.346c0 0-116.423 84.494 51.384 165.474 0 0 15.22 57.187 161.349 102.815l.107-.435a24.82 24.82 0 0 0 4.526.435c13.808 0 25.003-11.312 25.003-25.271 0-13.956-11.195-25.269-25.003-25.269" style="fill:#f74c00;fill-rule:nonzero" transform="translate(269.796 270.778)"/></svg></g><g id="Z_1"><svg width="48" height="48" xmlns="http://www.w3.org/2000/svg" viewBox="0 0 128 128"><path d="M54.32 27.164 33.304 16.559 10.226 28.071l21.594 10.84zm9.641 4.867L86 43.16 63.137 54.637 41.512 43.782zm29.437-15.316 22.645 11.355-20.254 10.168-22.082-11.141zm-9.746-4.891L63.265 1.601 43.101 11.667l21.008 10.59zM67.715 99.605v27.816l24.695-12.324-.023-27.828zm24.66-22.05-.027-27.535-24.633 12.246v27.547zm29.645-5.157v27.926l-21.066 10.508-.016-27.797zm0-9.765V35.266l-21.105 10.492.016 27.59z" color="#000" fill="#4cabcf" style="-inkscape-stroke:none"/><path d="m58.996 62.266-16.629-8.367v36.14S22.019 46.756 20.14 42.865c-.242-.504-1.242-1.051-1.496-1.188-3.668-1.914-14.355-7.324-14.355-7.324v63.871l14.785 7.926v-33.4s20.129 38.676 20.336 39.102c.21.422 2.219 4.492 4.383 5.926 2.87 1.906 15.195 9.316 15.195 9.316z" color="#000" fill="#4c75cf" style="-inkscape-stroke:none"/></svg></g><g id="Z_2"><svg width="48" height="48" xmlns="http://www.w3.org/2000/svg" viewBox="0 0 128 128"><path fill="#8ed6fb" d="M117.29 98.1 66.24 127v-22.51L98 87l19.29 11.1zm3.5-3.16V34.55l-18.68 10.8v38.81l18.67 10.77zM10.71 98.1l51 28.88v-22.49L29.94 87zm-3.5-3.16V34.55l18.68 10.8v38.81zm2.19-64.3L61.76 1v21.76L28.21 41.21l-.27.15zm109.18 0L66.24 1v21.76L99.79 41.2l.27.15 18.54-10.71z"/><path fill="#1c78c0" d="M61.76 99.37 30.37 82.1V47.92L61.76 66zm4.48 0 31.39-17.25v-34.2L66.24 66zM32.5 44 64 26.66 95.5 44 64 62.16 32.5 44z"/></svg></g><g id="Z_3"><svg width="48" height="48" xmlns="http://www.w3.org/2000/svg" viewBox="0 0 128 128"><g fill="#61DAFB"><circle cx="64" cy="64" r="11.4"/><path d="M107.3 45.2c-2.2-.8-4.5-1.6-6.9-2.3.6-2.4 1.1-4.8 1.5-7.1 2.1-13.2-.2-22.5-6.6-26.1-1.9-1.1-4-1.6-6.4-1.6-7 0-15.9 5.2-24.9 13.9-9-8.7-17.9-13.9-24.9-13.9-2.4 0-4.5.5-6.4 1.6-6.4 3.7-8.7 13-6.6 26.1.4 2.3.9 4.7 1.5 7.1-2.4.7-4.7 1.4-6.9 2.3C8.2 50 1.4 56.6 1.4 64s6.9 14 19.3 18.8c2.2.8 4.5 1.6 6.9 2.3-.6 2.4-1.1 4.8-1.5 7.1-2.1 13.2.2 22.5 6.6 26.1 1.9 1.1 4 1.6 6.4 1.6 7.1 0 16-5.2 24.9-13.9 9 8.7 17.9 13.9 24.9 13.9 2.4 0 4.5-.5 6.4-1.6 6.4-3.7 8.7-13 6.6-26.1-.4-2.3-.9-4.7-1.5-7.1 2.4-.7 4.7-1.4 6.9-2.3 12.5-4.8 19.3-11.4 19.3-18.8s-6.8-14-19.3-18.8zM92.5 14.7c4.1 2.4 5.5 9.8 3.8 20.3-.3 2.1-.8 4.3-1.4 6.6-5.2-1.2-10.7-2-16.5-2.5-3.4-4.8-6.9-9.1-10.4-13 7.4-7.3 14.9-12.3 21-12.3 1.3 0 2.5.3 3.5.9zM81.3 74c-1.8 3.2-3.9 6.4-6.1 9.6-3.7.3-7.4.4-11.2.4-3.9 0-7.6-.1-11.2-.4-2.2-3.2-4.2-6.4-6-9.6-1.9-3.3-3.7-6.7-5.3-10 1.6-3.3 3.4-6.7 5.3-10 1.8-3.2 3.9-6.4 6.1-9.6 3.7-.3 7.4-.4 11.2-.4 3.9 0 7.6.1 11.2.4 2.2 3.2 4.2 6.4 6 9.6 1.9 3.3 3.7 6.7 5.3 10-1.7 3.3-3.4 6.6-5.3 10zm8.3-3.3c1.5 3.5 2.7 6.9 3.8 10.3-3.4.8-7 1.4-10.8 1.9 1.2-1.9 2.5-3.9 3.6-6 1.2-2.1 2.3-4.2 3.4-6.2zM64 97.8c-2.4-2.6-4.7-5.4-6.9-8.3 2.3.1 4.6.2 6.9.2 2.3 0 4.6-.1 6.9-.2-2.2 2.9-4.5 5.7-6.9 8.3zm-18.6-15c-3.8-.5-7.4-1.1-10.8-1.9 1.1-3.3 2.3-6.8 3.8-10.3 1.1 2 2.2 4.1 3.4 6.1 1.2 2.2 2.4 4.1 3.6 6.1zm-7-25.5c-1.5-3.5-2.7-6.9-3.8-10.3 3.4-.8 7-1.4 10.8-1.9-1.2 1.9-2.5 3.9-3.6 6-1.2 2.1-2.3 4.2-3.4 6.2zM64 30.2c2.4 2.6 4.7 5.4 6.9 8.3-2.3-.1-4.6-.2-6.9-.2-2.3 0-4.6.1-6.9.2 2.2-2.9 4.5-5.7 6.9-8.3zm22.2 21-3.6-6c3.8.5 7.4 1.1 10.8 1.9-1.1 3.3-2.3 6.8-3.8 10.3-1.1-2.1-2.2-4.2-3.4-6.2zM31.7 35c-1.7-10.5-.3-17.9 3.8-20.3 1-.6 2.2-.9 3.5-.9 6 0 13.5 4.9 21 12.3-3.5 3.8-7 8.2-10.4 13-5.8.5-11.3 1.4-16.5 2.5-.6-2.3-1-4.5-1.4-6.6zM7 64c0-4.7 5.7-9.7 15.7-13.4 2-.8 4.2-1.5 6.4-2.1 1.6 5 3.6 10.3 6 15.6-2.4 5.3-4.5 10.5-6 15.5C15.3 75.6 7 69.6 7 64zm28.5 49.3c-4.1-2.4-5.5-9.8-3.8-20.3.3-2.1.8-4.3 1.4-6.6 5.2 1.2 10.7 2 16.5 2.5 3.4 4.8 6.9 9.1 10.4 13-7.4 7.3-14.9 12.3-21 12.3-1.3 0-2.5-.3-3.5-.9zM96.3 93c1.7 10.5.3 17.9-3.8 20.3-1 .6-2.2.9-3.5.9-6 0-13.5-4.9-21-12.3 3.5-3.8 7-8.2 10.4-13 5.8-.5 11.3-1.4 16.5-2.5.6 2.3 1 4.5 1.4 6.6zm9-15.6c-2 .8-4.2 1.5-6.4 2.1-1.6-5-3.6-10.3-6-15.6 2.4-5.3 4.5-10.5 6-15.5 13.8 4 22.1 10 22.1 15.6 0 4.7-5.8 9.7-15.7 13.4z"/></g></svg></g><g id="Z_4"><svg width="48" height="48" xmlns="http://www.w3.org/2000/svg" viewBox="0 0 128 128"><path d="M3.656 45.043s-3.027-2.191.61-5.113l8.468-7.594s2.426-2.559 4.989-.328l78.175 59.328v28.45s-.039 4.468-5.757 3.976zm0 0" fill="#2489ca"/><path d="M23.809 63.379 3.656 81.742s-2.07 1.543 0 4.305l9.356 8.527s2.222 2.395 5.508-.328l21.359-16.238zm0 0" fill="#1070b3"/><path d="m59.184 63.531 36.953-28.285-.239-28.297S94.32.773 89.055 3.99L39.879 48.851zm0 0" fill="#0877b9"/><path d="M90.14 123.797c2.145 2.203 4.747 1.48 4.747 1.48l28.797-14.222c3.687-2.52 3.171-5.645 3.171-5.645V20.465c0-3.735-3.812-5.024-3.812-5.024L98.082 3.38c-5.453-3.379-9.027.61-9.027.61s4.593-3.317 6.843 2.96v112.317c0 .773-.164 1.53-.492 2.214-.656 1.332-2.086 2.57-5.504 2.051zm0 0" fill="#3c99d4"/></svg></g><g id="Z_5"><svg width="48" height="48" xmlns="http://www.w3.org/2000/svg" viewBox="0 0 953.37 984"><defs><radialGradient id="a" cx="-14491.11" cy="9293.72" fx="-14519.876" r="450.88" gradientTransform="matrix(.76 .03 .05 -1.12 11485.79 11147.95)" gradientUnits="userSpaceOnUse"><stop offset=".1" stop-color="#ffea00"/><stop offset=".17" stop-color="#ffde00"/><stop offset=".28" stop-color="#ffbf00"/><stop offset=".43" stop-color="#ff8e00"/><stop offset=".77" stop-color="#ff272d"/><stop offset=".87" stop-color="#e0255a"/><stop offset=".95" stop-color="#cc2477"/><stop offset="1" stop-color="#c42482"/></radialGradient><radialGradient id="b" cx="-7587.48" cy="8863.48" r="791.23" gradientTransform="matrix(1.23 0 0 -1.23 9957.91 11055.45)" gradientUnits="userSpaceOnUse"><stop offset="0" stop-color="#00ccda"/><stop offset=".22" stop-color="#0083ff"/><stop offset=".26" stop-color="#007af9"/><stop offset=".33" stop-color="#0060e8"/><stop offset=".33" stop-color="#005fe7"/><stop offset=".44" stop-color="#2639ad"/><stop offset=".52" stop-color="#401e84"/><stop offset=".57" stop-color="#4a1475"/></radialGradient><radialGradient id="d" cx="-8337.74" cy="7467.89" r="266.89" gradientTransform="matrix(1.22 .12 .12 -1.22 10240.78 10765.16)" gradientUnits="userSpaceOnUse"><stop offset="0" stop-color="#ffea00"/><stop offset=".5" stop-color="#ff272d"/><stop offset="1" stop-color="#c42482"/></radialGradient><radialGradient id="e" cx="-8361.89" cy="7723.8" r="445.68" gradientTransform="matrix(1.22 .12 .12 -1.22 10240.78 10765.16)" gradientUnits="userSpaceOnUse"><stop offset="0" stop-color="#ffe900"/><stop offset=".16" stop-color="#ffaf0e"/><stop offset=".32" stop-color="#ff7a1b"/><stop offset=".47" stop-color="#ff4e26"/><stop offset=".62" stop-color="#ff2c2e"/><stop offset=".76" stop-color="#ff1434"/><stop offset=".89" stop-color="#ff0538"/><stop offset="1" stop-color="#ff0039"/></radialGradient><radialGradient id="f" cx="-8298.85" cy="7310.66" r="408.96" gradientTransform="matrix(1.22 .12 .12 -1.22 10240.78 10765.16)" gradientUnits="userSpaceOnUse"><stop offset="0" stop-color="#ff272d"/><stop offset=".5" stop-color="#c42482"/><stop offset=".99" stop-color="#620700"/></radialGradient><radialGradient id="g" cx="715.19" cy="589.96" fx="743.167" fy="576.132" r="782.18" gradientTransform="matrix(1 0 0 -1 0 984)" gradientUnits="userSpaceOnUse"><stop offset=".16" stop-color="#ffea00"/><stop offset=".23" stop-color="#ffde00"/><stop offset=".37" stop-color="#ffbf00"/><stop offset=".54" stop-color="#ff8e00"/><stop offset=".76" stop-color="#ff272d"/><stop offset=".8" stop-color="#f92433"/><stop offset=".84" stop-color="#e91c45"/><stop offset=".89" stop-color="#cf0e62"/><stop offset=".94" stop-color="#b5007f"/></radialGradient><radialGradient id="h" cx="670.34" cy="952.71" r="891.45" gradientTransform="matrix(1 0 0 -1 0 984)" gradientUnits="userSpaceOnUse"><stop offset=".28" stop-color="#ffea00"/><stop offset=".4" stop-color="#fd0"/><stop offset=".63" stop-color="#ffba00"/><stop offset=".86" stop-color="#ff9100"/><stop offset=".93" stop-color="#ff6711"/><stop offset=".99" stop-color="#ff4a1d"/></radialGradient><linearGradient id="c" x1="540.64" y1="254.8" x2="349.2" y2="881.03" gradientTransform="matrix(1 0 0 -1 0 984)" gradientUnits="userSpaceOnUse"><stop offset="0" stop-color="#000f43" stop-opacity=".4"/><stop offset=".48" stop-color="#001962" stop-opacity=".17"/><stop offset="1" stop-color="#002079" stop-opacity="0"/></linearGradient><linearGradient id="i" x1="-9023.45" y1="7636.92" x2="-8716.42" y2="7715.18" gradientTransform="matrix(1.22 .12 .12 -1.22 10240.78 10765.16)" gradientUnits="userSpaceOnUse"><stop offset="0" stop-color="#c42482" stop-opacity=".5"/><stop offset=".47" stop-color="#ff272d" stop-opacity=".5"/><stop offset=".49" stop-color="#ff2c2c" stop-opacity=".51"/><stop offset=".68" stop-color="#ff7a1a" stop-opacity=".72"/><stop offset=".83" stop-color="#ffb20d" stop-opacity=".87"/><stop offset=".94" stop-color="#ffd605" stop-opacity=".96"/><stop offset="1" stop-color="#ffe302"/></linearGradient><linearGradient id="j" x1="188.87" y1="2081.23" x2="134.3" y2="2221.08" gradientTransform="matrix(.99 .1 .1 -.99 -250.09 2306.15)" gradientUnits="userSpaceOnUse"><stop offset="0" stop-color="#891551" stop-opacity=".6"/><stop offset="1" stop-color="#c42482" stop-opacity="0"/></linearGradient><linearGradient id="k" x1="-38.43" y1="278.04" x2="55.68" y2="171.16" gradientTransform="matrix(.99 .1 .1 -.99 229.04 745.74)" gradientUnits="userSpaceOnUse"><stop offset=".01" stop-color="#891551" stop-opacity=".5"/><stop offset=".48" stop-color="#ff272d" stop-opacity=".5"/><stop offset="1" stop-color="#ff272d" stop-opacity="0"/></linearGradient><linearGradient id="l" x1="142.46" y1="93.68" x2="142.53" y2="168.46" gradientTransform="matrix(.99 .1 .1 -.99 229.04 745.74)" gradientUnits="userSpaceOnUse"><stop offset="0" stop-color="#c42482"/><stop offset=".08" stop-color="#c42482" stop-opacity=".81"/><stop offset=".21" stop-color="#c42482" stop-opacity=".57"/><stop offset=".33" stop-color="#c42482" stop-opacity=".36"/><stop offset=".45" stop-color="#c42482" stop-opacity=".2"/><stop offset=".56" stop-color="#c42482" stop-opacity=".09"/><stop offset=".67" stop-color="#c42482" stop-opacity=".02"/><stop offset=".77" stop-color="#c42482" stop-opacity="0"/></linearGradient><linearGradient id="m" x1="620.52" y1="947.88" x2="926.18" y2="264.39" gradientTransform="matrix(1 0 0 -1 0 984)" gradientUnits="userSpaceOnUse"><stop offset="0" stop-color="#fff14f"/><stop offset=".27" stop-color="#ffee4c"/><stop offset=".45" stop-color="#ffe643"/><stop offset=".61" stop-color="#ffd834"/><stop offset=".76" stop-color="#ffc41e"/><stop offset=".89" stop-color="#ffab02"/><stop offset=".9" stop-color="#ffa900"/><stop offset=".95" stop-color="#ffa000"/><stop offset="1" stop-color="#ff9100"/></linearGradient><linearGradient id="n" x1="680.88" y1="554.79" x2="536.1" y2="166.04" gradientTransform="matrix(1 0 0 -1 0 984)" gradientUnits="userSpaceOnUse"><stop offset="0" stop-color="#ff8e00"/><stop offset=".04" stop-color="#ff8e00" stop-opacity=".86"/><stop offset=".08" stop-color="#ff8e00" stop-opacity=".73"/><stop offset=".13" stop-color="#ff8e00" stop-opacity=".63"/><stop offset=".18" stop-color="#ff8e00" stop-opacity=".56"/><stop offset=".23" stop-color="#ff8e00" stop-opacity=".51"/><stop offset=".28" stop-color="#ff8e00" stop-opacity=".5"/><stop offset=".39" stop-color="#ff8e00" stop-opacity=".48"/><stop offset=".52" stop-color="#ff8e00" stop-opacity=".42"/><stop offset=".68" stop-color="#ff8e00" stop-opacity=".31"/><stop offset=".84" stop-color="#ff8e00" stop-opacity=".17"/><stop offset="1" stop-color="#ff8e00" stop-opacity="0"/></linearGradient></defs><g data-name="Layer 2"><g data-name="Layer 1"><g data-name="Layer 2"><g data-name="Firefox - Large"><path d="M770.28 91.56c-23.95 27.88-35.1 90.64-10.82 154.26s61.5 49.8 84.7 114.67c30.62 85.6 16.37 200.59 16.37 200.59s36.81 106.61 62.47-6.63c56.79-212.71-152.72-410.51-152.72-462.89z" style="fill:url(#a)"/><path data-name="Path" d="M478.07 974.64c245.24 0 443.9-199.74 443.9-446s-198.66-446-443.66-446S34.65 282.32 34.65 528.61c-.47 246.53 198.42 446.03 443.42 446.03z" style="fill:url(#b)"/><path d="M810.67 803.64a246.8 246.8 0 0 1-30.12 18.18 705.31 705.31 0 0 0 38.3-63c9.46-10.47 18.13-20.65 25.19-31.65 3.44-5.41 7.31-12.08 11.42-19.82 24.92-44.9 52.4-117.56 53.18-192.2v-5.66a257.25 257.25 0 0 0-5.71-55.75c.2 1.43.38 2.86.56 4.29-.22-1.1-.41-2.21-.64-3.31.37 2 .66 4 1 6 5.09 43.22 1.47 85.37-16.68 116.45-.29.45-.58.88-.87 1.32 9.41-47.23 12.56-99.39 2.09-151.6 0 0-4.19-25.38-35.38-102.44-18-44.35-49.83-80.72-78-107.21-24.69-30.55-47.11-51-59.47-64.06-25.82-27.18-36.64-47.57-41.09-60.87-3.85-1.93-53.14-49.81-57.05-51.63-21.51 33.35-89.16 137.67-57 235.15 14.58 44.17 51.47 90 90.07 115.74 1.69 1.94 23 25 33.09 77.16 10.45 53.85 5 95.86-16.54 158-25.29 54.51-90.02 108.39-150.72 113.9-129.67 11.78-177.15-65.11-177.15-65.11 46.34 18.48 97.57 14.65 128.72-4.52 31.4-19.43 50.39-33.83 65.81-28.15C548.86 648.43 561 632 550.1 615a78.5 78.5 0 0 0-79.4-34.57c-31.43 5.11-60.23 30-101.41 5.89a86.29 86.29 0 0 1-7.73-5.06c-2.71-1.79 8.83 2.72 6.13.69-8-4.35-22.2-13.84-25.88-17.22-.61-.56 6.22 2.18 5.61 1.62-38.51-31.71-33.7-53.13-32.49-66.57 1-10.75 8-24.52 19.75-30.11 5.69 3.11 9.24 5.48 9.24 5.48s-2.43-5-3.74-7.58c.46-.2.9-.15 1.36-.34 4.66 2.25 15 8.1 20.41 11.67 7.07 5 9.33 9.44 9.33 9.44s1.86-1 .48-5.37c-.5-1.78-2.65-7.45-9.65-13.17h.44a81.61 81.61 0 0 1 11.87 8.2c2-7.18 5.53-14.68 4.75-28.09-.48-9.43-.26-11.87-1.92-15.51-1.49-3.13.83-4.35 3.42-1.1a32.5 32.5 0 0 0-2.21-7.4v-.24c3.23-11.24 68.25-40.46 73-43.88A67.2 67.2 0 0 0 470.59 361c3.62-5.76 6.34-13.85 7-26.11.36-8.84-3.76-14.73-69.51-21.62-18-1.77-28.53-14.8-34.53-26.82-1.09-2.59-2.21-4.94-3.33-7.28a57.68 57.68 0 0 1-2.56-8.43c10.75-30.87 28.81-57 55.37-76.7 1.45-1.32-5.78.34-4.34-1 1.69-1.54 12.71-6 14.79-7 2.54-1.2-10.88-6.9-22.73-5.51-12.07 1.36-14.63 2.8-21.07 5.53 2.67-2.66 11.17-6.15 9.18-6.13-13 2-29.18 9.56-43 18.12a10.66 10.66 0 0 1 .83-4.35c-6.44 2.73-22.26 13.79-26.87 23.14a44.29 44.29 0 0 0 .27-5.4 84.17 84.17 0 0 0-13.19 13.82l-.24.22c-37.36-15-70.23-16-98.05-9.28-6.09-6.11-9.06-1.64-22.91-32.07-.94-1.83.72 1.81 0 0-2.28-5.9 1.39 7.87 0 0-23.28 18.37-53.92 39.19-68.63 53.89-.18.59 17.16-4.9 0 0-6 1.72-5.6 5.28-6.51 37.5-.22 2.44 0 5.18-.22 7.38-11.75 15-19.75 27.64-22.78 34.21-15.19 26.18-31.93 67-48.15 131.55a334.82 334.82 0 0 1 25.79-50.3c-13.49 34.27-26.53 88.08-29.13 170.94a482.08 482.08 0 0 1 12.53-50.66 473 473 0 0 0 34.73 201.07c9.33 22.82 24.76 57.46 51 95.4C226.9 902 343.31 956 472.21 956c134.58 0 255.43-58.87 338.46-152.36z" style="fill:url(#c)"/><path d="M711.1 866.71c162.87-18.86 235-186.7 142.38-190-83.63-2.71-219.48 198.9-142.38 190z" style="fill:url(#d)"/><path d="M865.21 642.42C977.26 577.21 948 436.34 948 436.34s-43.25 50.24-72.62 130.32c-28.98 79.34-77.54 115.15-10.17 75.76z" style="fill:url(#e)"/><path d="M509.47 950.06C665.7 999.91 800 876.84 717.21 835.74 642 798.68 435.32 926.49 509.47 950.06z" style="fill:url(#f)"/><path d="M876.85 702.23c3.8-5.36 8.94-22.53 13.48-30.21 27.58-44.52 27.78-80 27.78-80.84 16.66-83.22 15.15-117.2 4.9-180-8.25-50.6-44.32-123.09-75.57-158-32.2-36-9.51-24.25-40.69-50.52-27.33-30.29-53.82-60.29-68.25-72.36C634.22 43.09 636.57 24.58 638.58 21.42c-.34.37-.84.92-1.47 1.64C635.87 18.14 635 14 635 14s-57 57-69 152c-7.83 62 15.38 126.68 49 168a381.62 381.62 0 0 0 59 58c25.4 36.48 39.38 81.49 39.38 129.91 0 121.24-98.34 219.53-219.65 219.53a220.14 220.14 0 0 1-49.13-5.52c-57.24-10.92-90.3-39.8-106.78-59.41-9.45-11.23-13.46-19.42-13.46-19.42 51.28 18.37 108 14.53 142.47-4.52 34.75-19.26 55.77-33.55 72.84-27.92 16.82 5.61 30.21-10.67 18.2-27.54-11.77-16.85-42.4-41-87.88-34.29-34.79 5.07-66.66 29.76-112.24 5.84a97.34 97.34 0 0 1-8.55-5c-3-1.77 9.77 2.69 6.79.68-8.87-4.32-24.57-13.73-28.64-17.07-.68-.56 6.88 2.16 6.2 1.6-42.62-31.45-37.3-52.69-36-66 1.07-10.66 8.81-24.32 21.86-29.86 6.3 3.08 10.23 5.43 10.23 5.43s-2.69-4.92-4.14-7.51c.51-.19 1-.15 1.5-.34 5.16 2.23 16.58 8 22.59 11.57 7.83 4.95 10.32 9.36 10.32 9.36s2.06-1 .54-5.33c-.56-1.77-2.93-7.39-10.68-13.07h.48a91.65 91.65 0 0 1 13.13 8.17c2.19-7.12 6.12-14.56 5.25-27.86-.53-9.35-.28-11.78-2.12-15.39-1.65-3.1.92-4.31 3.78-1.09a29.73 29.73 0 0 0-2.44-7.34v-.24c3.57-11.14 75.53-40.12 80.77-43.51a70.24 70.24 0 0 0 21.17-20.63c4-5.72 7-13.73 7.75-25.89.25-5.48-1.44-9.82-20.5-14-11.44-2.49-29.14-4.91-56.43-7.47-19.9-1.76-31.58-14.68-38.21-26.6-1.21-2.57-2.45-4.9-3.68-7.22a53.41 53.41 0 0 1-2.83-8.36 158.47 158.47 0 0 1 61.28-76.06c1.6-1.31-6.4.33-4.8-1 1.87-1.52 14.06-5.93 16.37-6.92 2.81-1.19-12-6.84-25.16-5.47-13.36 1.35-16.19 2.78-23.32 5.49 3-2.64 12.37-6.1 10.16-6.08-14.4 2-32.3 9.48-47.6 18a9.72 9.72 0 0 1 .92-4.31c-7.13 2.71-24.64 13.67-29.73 23a39.79 39.79 0 0 0 .29-5.35 88.55 88.55 0 0 0-14.6 13.7l-.27.22C258.14 196 221.75 195 191 201.72c-6.74-6.06-17.57-15.23-32.89-45.4-1-1.82-1.6 3.75-2.4 2-6-13.81-9.55-36.44-9-52 0 0-12.32 5.61-22.51 29.06-1.89 4.21-3.11 6.54-4.32 8.87-.56.68 1.27-7.7 1-7.24-1.77 3-6.36 7.19-8.37 12.62-1.38 4-3.32 6.27-4.56 11.29l-.29.46c-.1-1.48.37-6.08 0-5.14A235.4 235.4 0 0 0 95.34 186c-5.49 18-11.88 42.61-12.89 74.57-.24 2.42 0 5.14-.25 7.32-13 14.83-21.86 27.39-25.2 33.91-16.81 26-35.33 66.44-53.29 130.46a319.35 319.35 0 0 1 28.54-50C17.32 416.25 2.89 469.62 0 551.8a436.92 436.92 0 0 1 13.87-50.24C11.29 556.36 17.68 624.3 52.32 701c20.57 45 67.92 136.6 183.62 208s39.36 29.3 107 51.26c5 1.81 10.06 3.6 15.23 5.33q-2.43-1-4.71-2A484.9 484.9 0 0 0 492.27 984c175.18.15 226.85-70.2 226.85-70.2l-.51.38q3.71-3.49 7.14-7.26c-27.64 26.08-90.75 27.84-114.3 26 40.22-11.81 66.69-21.81 118.17-41.52q9-3.36 18.48-7.64l2-.94c1.25-.58 2.49-1.13 3.75-1.74a349.3 349.3 0 0 0 70.26-44c51.7-41.3 63-81.56 68.83-108.1-.82 2.54-3.37 8.47-5.17 12.32-13.31 28.48-42.84 46-74.91 61a689.05 689.05 0 0 0 42.38-62.44c10.53-10.47 13.76-26.71 21.61-37.63z" style="fill:url(#g)"/><path d="M813.92 801c21.08-23.24 40-49.82 54.35-80 36.9-77.58 94-206.58 49-341.31C881.77 273.22 833 215 771.11 158.12 670.56 65.76 642.48 24.52 642.48 0c0 0-116.09 129.41-65.74 264.38s153.46 130 221.68 270.87c80.27 165.74-64.95 346.61-185 397.24 7.35-1.63 267-60.38 280.61-208.88-.35 2.73-6.2 43.8-80.11 77.39z" style="fill:url(#h)"/><path d="M477.59 319.37c.39-8.77-4.16-14.66-76.68-21.46-29.84-2.76-41.26-30.33-44.75-41.94-10.61 27.56-15 56.49-12.64 91.48 1.61 22.92 17 47.52 24.37 62 0 0 1.64-2.13 2.39-2.91 13.86-14.43 71.94-36.42 77.39-39.54 6.02-3.84 28.91-20.56 29.92-47.63z" style="fill:url(#i)"/><path d="M158.31 156.47c-1-1.82-1.6 3.75-2.4 2-6-13.81-9.58-36.2-8.72-52 0 0-12.32 5.61-22.51 29.06-1.89 4.21-3.11 6.54-4.32 8.86-.56.68 1.27-7.7 1-7.24-1.77 3-6.36 7.19-8.35 12.38-1.65 4.24-3.35 6.52-4.61 11.77-.39 1.43.39-6.32 0-5.38C84.72 201.68 80.19 271 82.69 268 133.17 214.14 191 201.36 191 201.36c-6.15-4.53-19.53-17.63-32.7-44.89z" style="fill:url(#j)"/><path d="M349.84 720.1c-69.72-29.77-149-71.75-146-167.14C207.92 427.35 321 452.18 321 452.18c-4.27 1-15.68 9.16-19.72 17.82-4.27 10.83-12.07 35.28 11.55 60.9 37.09 40.19-76.2 95.36 98.66 199.57 4.41 2.4-41-1.43-61.64-10.36z" style="fill:url(#k)"/><path d="M325.07 657.5c49.44 17.21 107 14.19 141.52-4.86 23.09-12.85 52.7-33.43 70.92-28.35-15.78-6.24-27.73-9.15-42.1-9.86-2.45 0-5.38 0-8-.32a136 136 0 0 0-15.76.86c-8.9.82-18.77 6.43-27.74 5.53-.48 0 8.7-3.77 8-3.61-4.75 1-9.92 1.21-15.37 1.88-3.47.39-6.45.82-9.89 1-103 8.73-190-55.81-190-55.81-7.41 25 33.17 74.3 88.52 93.57z" style="fill:url(#l)"/><path d="M813.74 801.65c104.16-102.27 156.86-226.58 134.58-366 0 0 8.9 71.5-24.85 144.63 16.21-71.39 18.1-160.11-25-252C841 205.64 746.45 141.11 710.35 114.19 655.66 73.4 633 31.87 632.57 23.3c-16.34 33.48-65.77 148.2-5.31 247 56.64 92.56 145.86 120 208.33 205 115.08 156.37-21.85 326.35-21.85 326.35z" style="fill:url(#m)"/><path d="M798.81 535.55C762.41 460.35 717 427.55 674 392c5 7 6.23 9.47 9 14 37.83 40.32 93.61 138.66 53.11 262.11C659.88 900.48 355 791.06 323 760.32 335.93 894.81 561 959.16 707.6 872c83.4-79 150.87-213.21 91.21-336.45z" style="fill:url(#n)"/></g></g></g></g></svg></g><g id="Z_6"><svg width="48" height="48" xmlns="http://www.w3.org/2000/svg"
	xmlns:xlink="http://www.w3.org/1999/xlink" viewBox="0 0 640 640">
	<path d="m127.65 452.85 384.18 3.12-5.64-130.01-371.35-54.09-7.19 180.98z" fill="#fff"/>
	<path d="M636.5 75.5C636.5 36 604.5 4 565 4s-72 31.5-72 71.5 32 71.5 72 71.5 71.5-32 71.5-71.5" fill="navy"/>
	<path d="M75 320.5c0 135.5 109.5 245 245 245s245-109.5 245-245-110-245-245-245S75 185 75 320.5zm78.5 122V282H174v142.5h79.5v18h-100zm195 0v-16c-11 15-21.5 21-38.5 21-22.5 0-37-12.5-37-31.5v-89h18.5v81.5c0 14 9.5 22.5 24 22.5 19 0 31.5-15.5 31.5-39v-65h18v115.5h-16.5zm73-295.5c39.5 0 71.5 32 71.5 71.5S461 290 421.5 290 350 258 350 218.5s32-71.5 71.5-71.5zm65 300.5c-12 0-17.5-5.5-19-17-13 12-24.5 17-39 17-23.5 0-38-13-38-34 0-15 7-25.5 20.5-31 7-3 11-3.5 37-7 14.5-2 19-5 19-13v-5c0-11-9.5-17-26-17-17 0-25.5 6.5-27 20.5h-18.5c.5-11.5 2.5-18 8-24 7.5-8.5 21.5-13.5 38.5-13.5 28.5 0 43.5 11 43.5 31.5v68c0 5.5 3.5 9 10 9 1 0 2 0 4-.5-.03.93-.2 5.6-.5 14-6 1.33-10.17 2-12.5 2z" fill="navy"/>
	<path d="M432 431.5c11 0 20-3.5 27.5-10.5 5.5-5 7.5-9 7.5-15v-20.5c-6 3-10 3.5-29.5 6.5-19.5 2.5-28 9-28 21 0 11.5 8.5 18.5 22.5 18.5z" fill="navy"/>
	<path d="M331 632.5c9-.5 18-1 27-2l1 7.5c-9 1-18.5 1.5-27.5 2l-.5-7.5zm-55.5 5 1-7.5c9 1 18 2 27 2.5v7.5c-12.33-1-21.67-1.83-28-2.5zM385 626c9-2 17.5-4 26.5-7l2 7c-8.5 3-17.5 5.5-27 7l-1.5-7zm-164-1.5 2.5-7c8.5 3 17.5 5 26.5 7.5-.13.47-.8 2.8-2 7-12-3-21-5.5-27-7.5zM437 610c8.5-3.5 16.5-7 25-11.5l3.5 6.5c-8.5 4.5-17 8.5-25.5 12l-3-7zm-267-7 3.5-6.5c8 4.5 16.5 8 24.5 12-.2.43-1.2 2.6-3 6.5-11.33-5-19.67-9-25-12zm316-17.5c7.5-5 15-10 22.5-15.5l4.5 6c-7.5 5.5-15.5 10.5-23 15.5l-4-6zm-362.5-13 4.5-6c7 5.5 14.5 11 22 16-.27.4-1.6 2.4-4 6-10.33-7-17.83-12.33-22.5-16zm406-20c6.5-6 13.5-12.5 19.5-19l5.5 5c-6.5 6.5-13.5 13-20 19.5l-5-5.5zm-447-18 5.5-5c6 6.5 12.5 13.5 19 19.5-.33.37-2 2.2-5 5.5-9-8.67-15.5-15.33-19.5-20zm484-22c5.5-7 11-14.5 16-22l6 4c-5 7.5-10.5 15.5-16 22.5l-6-4.5zM48.5 490l6-4c5 7.5 10 15 15.5 22.5-.37.3-2.2 1.8-5.5 4.5-7.33-10-12.67-17.67-16-23zm548-23c4.5-8 8-16.5 12-24.5.43.17 2.6 1 6.5 2.5l-12 25.5c-3.9-2.1-6.07-3.27-6.5-3.5zm-573-27 6.5-2.5c3.5 8.5 7 16.5 11.5 25-.43.2-2.6 1.2-6.5 3-5.33-11.33-9.17-19.83-11.5-25.5zm594-23.5c3-8.5 5-17.5 7.5-26.5l7 1.5c-2 9.5-4.5 18.5-7.5 27.5l-7-2.5zM7 387l7-1.5c2 9 4 17.5 7 26.5-.47.13-2.8.8-7 2-3.33-12-5.67-21-7-27zm622.5-23.5c1-9 2-18 2.5-27l7.5.5c0 9-1 18.5-2.5 27.5l-7.5-1zM0 331.5l7.5-.5c.5 9 1 18 2 27l-7 1.5c-1.33-12.33-2.17-21.67-2.5-28zM630.5 282l7.5-1c1 9 2 18.5 2 28h-7.5c-.67-12-1.33-21-2-27zM0 303.5c.5-9.5 1.5-18.5 2.5-28L10 277c-1 9-2 18-2.5 27l-7.5-.5zm619-75 7-2c2.5 9 5 18 7 27l-7 1.5c-2.67-12-5-20.83-7-26.5zm-611 20c2-9 4.5-18 7.5-27l7 2.5c-3 8.5-5.5 17-7.5 26l-7-1.5zM598.5 178l6.5-3.5c4 8.5 8 17 11.5 25.5-.43.2-2.6 1.2-6.5 3-4.67-11.33-8.5-19.67-11.5-25zM25 195.5c3.5-8.5 7.5-17 12-25l6.5 3.5c-4 7.5-8 16-11.5 24l-7-2.5zM51.5 146c5-8 10.5-15.5 16-22.5l6 4.5c-6 7-11 14.5-16 22l-6-4zm34-44c6.5-7 13-13.5 20-19.5l5 5.5c-7 6-13.5 12.5-19.5 19l-5.5-5zM127 64.5c7.5-5.5 15-11 23-16l4 6c-8 5.5-15.5 10.5-22.5 16l-4.5-6zM442 32l2.5-7c8.5 3.5 17 7.5 25 12-.2.43-1.2 2.6-3 6.5-11-5.33-19.17-9.17-24.5-11.5zm-268 3c8.5-4 17-8 25.5-11.5l3 6.5c-8.5 3.5-17 7.5-25 11.5L174 35zm215.5-19.5 1.5-7c9 2 18 4.5 27 7.5-.13.43-.8 2.6-2 6.5-11.67-3.33-20.5-5.67-26.5-7zM226 14c9-2.5 18-5 27-7l1.5 7c-9 2-18 4.5-26.5 7l-2-7zm110-6.5.5-7.5c9.5.5 18.5 1.5 28 2.5L363 10c-12-1.33-21-2.17-27-2.5zM280.5 2c9-1 18.5-2 28-2l.5 7.5c-9.5 0-18.5 1-27.5 2l-1-7.5z" fill="gray"/>
</svg></g><g id="Z_7"><svg width="48" height="48" xmlns="http://www.w3.org/2000/svg" viewBox="0 0 128 128"><path fill="#659AD3" d="M115.4 30.7 67.1 2.9c-.8-.5-1.9-.7-3.1-.7-1.2 0-2.3.3-3.1.7l-48 27.9c-1.7 1-2.9 3.5-2.9 5.4v55.7c0 1.1.2 2.4 1 3.5l106.8-62c-.6-1.2-1.5-2.1-2.4-2.7z"/><path fill="#03599C" d="M10.7 95.3c.5.8 1.2 1.5 1.9 1.9l48.2 27.9c.8.5 1.9.7 3.1.7 1.2 0 2.3-.3 3.1-.7l48-27.9c1.7-1 2.9-3.5 2.9-5.4V36.1c0-.9-.1-1.9-.6-2.8l-106.6 62z"/><path fill="#fff" d="M85.3 76.1C81.1 83.5 73.1 88.5 64 88.5c-13.5 0-24.5-11-24.5-24.5s11-24.5 24.5-24.5c9.1 0 17.1 5 21.3 12.5l13-7.5c-6.8-11.9-19.6-20-34.3-20-21.8 0-39.5 17.7-39.5 39.5s17.7 39.5 39.5 39.5c14.6 0 27.4-8 34.2-19.8l-12.9-7.6z"/></svg></g><g id="Z_8"><svg width="48" height="48" xmlns="http://www.w3.org/2000/svg" viewBox="0 0 128 128"><path fill="#9B4F96" d="M115.4 30.7 67.1 2.9c-.8-.5-1.9-.7-3.1-.7-1.2 0-2.3.3-3.1.7l-48 27.9c-1.7 1-2.9 3.5-2.9 5.4v55.7c0 1.1.2 2.4 1 3.5l106.8-62c-.6-1.2-1.5-2.1-2.4-2.7z"/><path fill="#68217A" d="M10.7 95.3c.5.8 1.2 1.5 1.9 1.9l48.2 27.9c.8.5 1.9.7 3.1.7 1.2 0 2.3-.3 3.1-.7l48-27.9c1.7-1 2.9-3.5 2.9-5.4V36.1c0-.9-.1-1.9-.6-2.8l-106.6 62z"/><path fill="#fff" d="M85.3 76.1C81.1 83.5 73.1 88.5 64 88.5c-13.5 0-24.5-11-24.5-24.5s11-24.5 24.5-24.5c9.1 0 17.1 5 21.3 12.5l13-7.5c-6.8-11.9-19.6-20-34.3-20-21.8 0-39.5 17.7-39.5 39.5s17.7 39.5 39.5 39.5c14.6 0 27.4-8 34.2-19.8l-12.9-7.6zM97 66.2l.9-4.3h-4.2v-4.7h5.1L100 51h4.9l-1.2 6.1h3.8l1.2-6.1h4.8l-1.2 6.1h2.4v4.7h-3.3l-.9 4.3h4.2v4.7h-5.1l-1.2 6h-4.9l1.2-6h-3.8l-1.2 6h-4.8l1.2-6h-2.4v-4.7H97zm4.8 0h3.8l.9-4.3h-3.8l-.9 4.3z"/></svg></g><g id="Z_9"><svg width="48" height="48" xmlns="http://www.w3.org/2000/svg" viewBox="0 -3 256 256"><path d="M0 0v256h256V0h-98.4c0 15-11.1 30-29.4 30A29.5 29.5 0 0 1 98.5 0z" fill="#007acc"/><path d="M100.35 117.107h2.025l52.506 115.818h-24.818l-5.402-13H78.063l-5.402 13H49.869zm15.87 83.065-8.274-19.922q-1.35-3.377-2.532-6.753-1.182-3.377-2.195-6.585-1.182-3.714-2.195-7.26-1.181 4.222-2.194 7.43-1.013 3.207-2.195 6.921-1.182 3.546-2.364 6.247l-8.273 19.922zm79.306 34.273q-8.273 0-15.026-1.857-6.753-1.858-12.156-5.065-5.402-3.208-9.454-7.598-3.883-4.558-6.416-9.623l19.247-11.143q3.883 6.247 9.117 10.299 5.402 4.052 14.181 4.052 7.429 0 11.65-3.208 4.39-3.377 4.39-8.442 0-6.077-4.56-9.116-4.558-3.04-12.661-6.585l-5.91-2.532q-6.415-2.702-11.649-5.91-5.234-3.207-8.948-7.428-3.714-4.22-5.74-9.623-2.026-5.403-2.026-12.663 0-6.584 2.364-12.324 2.532-5.74 6.922-9.961 4.558-4.22 10.974-6.585 6.415-2.363 14.35-2.363 11.312 0 19.416 4.39 8.272 4.22 14.182 14.519l-18.403 11.818q-3.039-5.403-6.584-7.766-3.546-2.364-8.61-2.364-5.234 0-8.273 2.87-3.04 2.87-3.04 7.26 0 5.403 3.377 8.273 3.546 2.701 11.143 6.078l5.91 2.532q7.596 3.208 13.337 6.753 5.909 3.377 9.792 7.766 4.052 4.221 6.078 9.793 2.195 5.402 2.195 12.83 0 7.936-3.04 14.183-2.87 6.077-8.103 10.298-5.234 4.221-12.494 6.416-7.09 2.026-15.532 2.026z" fill="#fff"/></svg></g><g id="Z_10"><svg width="48" height="48" xmlns="http://www.w3.org/2000/svg" viewBox="2 2 28 28"><path d="M19.153 2.35v.15a3.2 3.2 0 1 1-6.4 0v-.15H2v27.919h27.919V2.35z" style="fill:#654ff0"/><path d="M8.485 17.4h1.85l1.265 6.723h.023L13.14 17.4h1.731l1.371 6.81h.027l1.44-6.81h1.815l-2.358 9.885h-1.837l-1.36-6.728h-.036l-1.456 6.728h-1.87zm13.124 0h2.917l2.9 9.885h-1.911l-.63-2.2h-3.323l-.486 2.2h-1.859zm1.11 2.437-.807 3.627h2.512l-.924-3.632z" style="fill:#fff"/></svg></g><g id="Z_11"><svg width="48" height="48" xmlns="http://www.w3.org/2000/svg" viewBox="0 0 128 128"><path fill="#fff" d="M22.67 47h99.67v73.67H22.67z"/><path data-name="original" fill="#007acc" d="M1.5 63.91v62.5h125v-125H1.5zm100.73-5a15.56 15.56 0 0 1 7.82 4.5 20.58 20.58 0 0 1 3 4c0 .16-5.4 3.81-8.69 5.85-.12.08-.6-.44-1.13-1.23a7.09 7.09 0 0 0-5.87-3.53c-3.79-.26-6.23 1.73-6.21 5a4.58 4.58 0 0 0 .54 2.34c.83 1.73 2.38 2.76 7.24 4.86 8.95 3.85 12.78 6.39 15.16 10 2.66 4 3.25 10.46 1.45 15.24-2 5.2-6.9 8.73-13.83 9.9a38.32 38.32 0 0 1-9.52-.1 23 23 0 0 1-12.72-6.63c-1.15-1.27-3.39-4.58-3.25-4.82a9.34 9.34 0 0 1 1.15-.73L82 101l3.59-2.08.75 1.11a16.78 16.78 0 0 0 4.74 4.54c4 2.1 9.46 1.81 12.16-.62a5.43 5.43 0 0 0 .69-6.92c-1-1.39-3-2.56-8.59-5-6.45-2.78-9.23-4.5-11.77-7.24a16.48 16.48 0 0 1-3.43-6.25 25 25 0 0 1-.22-8c1.33-6.23 6-10.58 12.82-11.87a31.66 31.66 0 0 1 9.49.26zm-29.34 5.24v5.12H56.66v46.23H45.15V69.26H28.88v-5a49.19 49.19 0 0 1 .12-5.17C29.08 59 39 59 51 59h21.83z"/></svg></g><g id="Z_12"><svg width="48" height="48" xmlns="http://www.w3.org/2000/svg" viewBox="0 0 128 128"><path fill="#F0DB4F" d="M1.408 1.408h125.184v125.185H1.408z"/><path fill="#323330" d="M116.347 96.736c-.917-5.711-4.641-10.508-15.672-14.981-3.832-1.761-8.104-3.022-9.377-5.926-.452-1.69-.512-2.642-.226-3.665.821-3.32 4.784-4.355 7.925-3.403 2.023.678 3.938 2.237 5.093 4.724 5.402-3.498 5.391-3.475 9.163-5.879-1.381-2.141-2.118-3.129-3.022-4.045-3.249-3.629-7.676-5.498-14.756-5.355l-3.688.477c-3.534.893-6.902 2.748-8.877 5.235-5.926 6.724-4.236 18.492 2.975 23.335 7.104 5.332 17.54 6.545 18.873 11.531 1.297 6.104-4.486 8.08-10.234 7.378-4.236-.881-6.592-3.034-9.139-6.949-4.688 2.713-4.688 2.713-9.508 5.485 1.143 2.499 2.344 3.63 4.26 5.795 9.068 9.198 31.76 8.746 35.83-5.176.165-.478 1.261-3.666.38-8.581zM69.462 58.943H57.753l-.048 30.272c0 6.438.333 12.34-.714 14.149-1.713 3.558-6.152 3.117-8.175 2.427-2.059-1.012-3.106-2.451-4.319-4.485-.333-.584-.583-1.036-.667-1.071l-9.52 5.83c1.583 3.249 3.915 6.069 6.902 7.901 4.462 2.678 10.459 3.499 16.731 2.059 4.082-1.189 7.604-3.652 9.448-7.401 2.666-4.915 2.094-10.864 2.07-17.444.06-10.735.001-21.468.001-32.237z"/></svg></g><g id="Z_13"><svg width="48" height="48" xmlns="http://www.w3.org/2000/svg" viewBox="0 0 128 128"><path fill="#FFD845" d="M49.33 62h29.159C86.606 62 93 55.132 93 46.981V19.183c0-7.912-6.632-13.856-14.555-15.176-5.014-.835-10.195-1.215-15.187-1.191-4.99.023-9.612.448-13.805 1.191C37.098 6.188 35 10.758 35 19.183V30h29v4H23.776c-8.484 0-15.914 5.108-18.237 14.811-2.681 11.12-2.8 17.919 0 29.53C7.614 86.983 12.569 93 21.054 93H31V79.952C31 70.315 39.428 62 49.33 62zm-1.838-39.11c-3.026 0-5.478-2.479-5.478-5.545 0-3.079 2.451-5.581 5.478-5.581 3.015 0 5.479 2.502 5.479 5.581-.001 3.066-2.465 5.545-5.479 5.545zm74.789 25.921C120.183 40.363 116.178 34 107.682 34H97v12.981C97 57.031 88.206 65 78.489 65H49.33C41.342 65 35 72.326 35 80.326v27.8c0 7.91 6.745 12.564 14.462 14.834 9.242 2.717 17.994 3.208 29.051 0C85.862 120.831 93 116.549 93 108.126V97H64v-4h43.682c8.484 0 11.647-5.776 14.599-14.66 3.047-9.145 2.916-17.799 0-29.529zm-41.955 55.606c3.027 0 5.479 2.479 5.479 5.547 0 3.076-2.451 5.579-5.479 5.579-3.015 0-5.478-2.502-5.478-5.579 0-3.068 2.463-5.547 5.478-5.547z"/></svg></g><g id="Z_14"><svg width="48" height="48" xmlns="http://www.w3.org/2000/svg" viewBox="0 0 128 128"><path fill="#83CD29" d="M112.678 30.334 68.535 4.729c-2.781-1.584-6.424-1.584-9.227 0L14.82 30.334C11.951 31.985 10 35.088 10 38.407v51.142c0 3.319 1.992 6.423 4.862 8.083l11.729 6.688c5.627 2.772 7.186 2.772 9.746 2.772 8.334 0 12.662-5.039 12.662-13.828v-50.49C49 42.061 49.445 41 48.744 41h-5.622C42.41 41 41 42.061 41 42.773v50.49c0 3.896-3.616 7.773-10.202 4.48L18.676 90.73c-.422-.23-.676-.693-.676-1.181V38.407c0-.482.463-.966.891-1.213l44.378-25.561a1.508 1.508 0 0 1 1.415 0l43.963 25.555c.421.253.354.722.354 1.219v51.142c0 .488.092.963-.323 1.198l-44.133 25.576c-.378.227-.87.227-1.285 0l-11.317-6.749c-.341-.198-.752-.269-1.08-.086-3.145 1.783-3.729 2.02-6.679 3.043-.727.253-1.799.692.408 1.929l14.798 8.754a9.29 9.29 0 0 0 4.647 1.246 9.303 9.303 0 0 0 4.666-1.246l43.976-25.582c2.871-1.672 4.322-4.764 4.322-8.083V38.407c-.001-3.319-1.452-6.414-4.323-8.073zM77.727 81.445c-11.727 0-14.309-3.235-15.17-9.066-.102-.628-.634-1.379-1.274-1.379h-5.73c-.709 0-1.28.86-1.28 1.566 0 7.466 4.06 16.512 23.454 16.512 14.038 0 22.088-5.455 22.088-15.109 0-9.572-6.467-12.084-20.082-13.886-13.762-1.819-15.16-2.738-15.16-5.962 0-2.658 1.184-6.203 11.374-6.203 9.104 0 12.46 1.954 13.841 8.091.119.577.646.991 1.241.991h5.754c.354 0 .691-.143.939-.396.241-.272.367-.613.336-.979-.893-10.569-7.913-15.494-22.112-15.494-12.632 0-20.166 5.334-20.166 14.275 0 9.698 7.497 12.378 19.622 13.577 14.505 1.422 15.633 3.542 15.633 6.395 0 4.956-3.978 7.067-13.308 7.067z"/></svg></g><g id="Z_15"><svg width="48" height="48" xmlns="http://www.w3.org/2000/svg"
	xmlns:xlink="http://www.w3.org/1999/xlink" viewBox="0 0 640 640">
	<path d="M617.42 320c0 168.89-133.27 306-297.42 306S22.58 488.89 22.58 320 155.85 14 320 14s297.42 137.11 297.42 306z" fill="#fff"/>
	<path d="M282.51 3.15c-61.18 6.4-121.43 32.32-170.56 73.45-9.07 7.53-29.73 28.19-37.26 37.25-40.67 48.6-64.45 103.13-73.23 167.66-1.95 14.33-1.95 62.67 0 77 8.78 64.52 32.56 119.06 73.23 167.65 7.53 9.08 28.19 29.72 37.26 37.25 48.59 40.68 103.12 64.45 167.65 73.23 14.33 1.96 62.68 1.96 77 0 64.53-8.77 119.06-32.55 167.65-73.23 9.08-7.53 29.73-28.18 37.25-37.25 40.68-48.59 64.46-103.12 73.22-167.65 1.97-14.33 1.97-62.68 0-77-8.76-64.53-32.54-119.06-73.22-167.66-7.52-9.06-28.18-29.72-37.25-37.25C475.83 36.08 420.74 12 357.06 3.47c-6.89-.96-16.89-1.34-35.44-1.49-14.15-.17-27.08-.07-28.55.07-1.49.15-6.25.71-10.56 1.1zm14.47 32.7c0 9.15.61 29.02 1.49 47.89.47 9.21 1 22.44 1.25 29.33.86 24.42 3.45 88.48 3.83 94.21.03.38.16 2.27.4 5.69-2.12-.23-3.29-.36-3.52-.39-1.96-.15-3.77-.61-4.08-.85-.22-.32-.79-5.72-1.11-12.06-1.38-27.84-6-135.9-6.47-151.69-.03-1.16-.2-6.95-.49-17.38 1.32-.17 2.06-.27 2.2-.29 1.17-.18 3.13-.39 4.38-.49.14 0 .85-.03 2.12-.07v6.1zm75.41 50.63c.32 28.87.71 54.75.95 57.57.22 2.9.15 5.4-.25 5.56-.31.22-2.27.22-4.22 0-.24-.02-1.44-.12-3.59-.31-.33-13.67-.5-21.26-.54-22.78-.26-10.35-.55-20.7-.88-31.04-.62-13.87-1.17-60.87-.68-62.04.29-.88 1.17-.96 4.44-.4 2.28.47 4.16.86 4.23.94.07.07.32 23.71.54 52.5zM199.57 160.4c1.5 19.18 2.96 36.71 3.21 38.89.39 3.98.31 4.15-2.2 5.72-1.39.85-2.81 1.56-3.13 1.56-.22 0-.68-2.03-.93-4.55-1.1-10.17-5.33-59.3-8.28-94.81-1.74-20.9-3.31-39.6-3.53-41.63-.38-3.44-.31-3.76 1.72-4.84 2.49-1.35 3.91-1.56 4.44-.56.49.7 4.16 43.82 8.7 100.22zm209.6-78.86c.79 7.82.54 45.22-.31 45.22-2.28 0-6.97-2.66-7.36-4.15-.25-.94-.46-12.03-.46-24.64 0-25.42-.32-23.93 5.22-22.05 2.21.78 2.43 1.17 2.91 5.62zm-146.24 24.1c.64 12.27 1.35 27.84 1.67 34.59.53 13.61.68 13.13-4.55 13.45-2.59.06-2.59.06-2.74-3.85-.15-2.17-.54-8.99-1.02-15.25-.4-6.25-1.32-19.79-1.96-30.11-.43-7.6-.97-15.2-1.64-22.78-.47-3.91-.39-4.06 1.71-4.84 1.27-.47 3.44-.85 4.86-.85 2.5-.08 2.5-.08 2.5 3.59 0 2.1.56 13.76 1.17 26.05zm218.52-14.25c.34 6.29.53 9.79.57 10.49.22 5.72.38 18.08.22 27.4-.02 1.14-.09 6.82-.22 17.04l-3.3-1.64-3.28-1.57c-.15-15.59-.23-24.25-.24-25.98-.15-14.3-.08-26.42.07-26.99.31-1.17.31-1.17 3.52.18.35.14 1.24.5 2.66 1.07zm-143.87 66.83c.01.77.03 4.63.08 11.59-2.2-.34-3.42-.53-3.67-.57-2.13-.25-3.84-.46-3.91-.53-.25-.17-2.59-58.14-2.59-63.77v-5.8c2.39.28 3.71.43 3.98.46 2.28.32 4.23.71 4.47.96.47.47 1.57 38.4 1.64 57.66zm179.88 60.62c.22 108.52.22 111.34-1.18 111.34-1-.06-1.96-.42-2.75-1.03-1.18-.85-1.33-10.32-1.72-103.03-.31-56.17-.71-107.19-.93-113.36-.03-.75-.19-4.51-.49-11.27 1.37.98 2.12 1.52 2.28 1.63 1.34.96 2.84 2.28 3.44 2.99.96 1.1 1.1 18.23 1.35 112.73zm-70.67-86.82c.4 17.28.47 123.29.08 123.61-.15.14-1.57-.25-3.13-.86-.19-.08-1.13-.47-2.82-1.18V120.5c1.33.28 2.06.44 2.21.47 1.17.31 2.42.78 2.81 1.17.39.32.78 4.77.85 9.88zm-215.93 5.3c.25 3.84.78 12.61 1.25 19.41.95 13.77.78 14.64-3.67 14.64-2.34 0-2.66-.25-2.98-2.59-.78-4.62-3.52-43.12-3.13-43.73.39-.57 4.48-1.95 6.34-2.13.48-.07 1.09 1.56 1.34 3.6.22 2.13.61 6.89.85 10.8zm-126.42 47.74c1.32 12.91 2.42 23.86 2.42 24.32 0 .95-6.03 3.91-6.65 3.3-.39-.39-8.21-69.64-8.21-72.77 0-1.88 6.01-9.78 6.8-8.92.24.15 1.02 7.11 1.81 15.5.85 8.28 2.56 25.66 3.83 38.57zm305.2-29.04c.04 10.15.07 15.79.07 16.92.08 9.21.25 19.55.25 22.9.15 7.04-.71 8.21-4.94 6.74-.16-.05-.97-.35-2.42-.87v-6.73c0-3.73-.25-14.62-.56-24.25-.03-1.16-.19-6.95-.47-17.37h1.82c.92 0 2.73.63 3.98 1.34.3.18 1.06.61 2.27 1.32zM140.1 241.37c.18 1.93 1.07 11.59 2.67 28.98l-3.05 3.02-2.96 3.06c-.34-3.72-.53-5.78-.57-6.19-.31-3.44-1.87-19.38-3.51-35.51a9126.02 9126.02 0 0 1-5.16-51.94c-.15-1.51-.88-9.02-2.2-22.54 1.83-1.69 2.85-2.63 3.05-2.81 2.74-2.59 3.06-2.67 3.6-1.26.31.79 1.63 13.77 2.98 28.88 1.42 15.01 3.66 40.36 5.15 56.31zm-53.57 44.22c3.91 34.66 7.57 68.05 8.28 74.31.64 6.26 1.71 15.74 2.35 21.15 1.1 9.13 1.1 9.77-.14 10.7-1.89 1.42-2.67 1.25-2.67-.39 0-.71-.71-6.65-1.56-13.06-1.43-10.73-3.77-28.89-9-69.63-1.62-12.12-3.18-24.24-4.7-36.37-1.56-11.84-3.83-29.43-5.1-39.14-1.25-9.7-3.35-26.28-4.7-37-1.39-10.64-2.25-20.1-2.02-21.12.56-2.1 5.15-9.46 5.64-9 .15.22 1.71 12.98 3.44 28.47 1.72 15.43 6.27 56.42 10.18 91.08zM57.27 266.4c1.46 11.59 3.35 26.06 4.2 32.1.1.73.6 4.38 1.49 10.95-.98.85-1.53 1.32-1.64 1.42-.92.78-1.87 1.07-2.19.78-.3-.32-.94-3.45-1.4-6.9-2.11-14.87-4.28-29.74-6.5-44.6-.37-2.56-2.22-15.34-5.55-38.33 1.07-3.2 1.67-4.97 1.79-5.33.95-2.88 1.95-5.23 2.2-5.23.31 0 1.48 7.67 2.74 16.96 1.17 9.42 3.37 26.55 4.86 38.18zm425.92-6.55v40.61h-2.2c-4.77 0-4.69 1.17-5.01-43.27-.01-2.69-.09-16.18-.22-40.45h2.49c1.32 0 3.06.54 3.67 1.24 1.1 1.1 1.27 5.95 1.27 41.87zm-124.17-12.44c9.85 5.09 14.54 8.61 25.49 19.09 16.28 15.58 26.3 29.19 35.69 48.43 13.69 28.01 19.02 52.79 25.74 119.3 3.06 29.82 7.04 83.87 7.89 106 .25 6.44.79 17 1.27 23.47.86 13.79 1.86 11.91-10.26 17.77-16.82 8.15-33.03 13.77-54.36 19.02-26.13 6.41-43.05 8.43-68.86 8.53-1.25.01-7.51.03-18.77.08l.15-9c0-4.94.46-16.43.95-25.42 2.35-43.58 1.86-98.58-1.18-129.11-1.73-17.52-5.08-38.79-6.96-43.49-.39-1.02 1.39-1.87 9.14-4.54 14.18-4.94 26.45-11.12 28.33-14.15 3.38-5.79-2.66-14.1-10.34-14.1-1.31 0-5.31 1.41-8.99 3.05-17.53 8.07-52.65 17.52-72.92 19.65-14 1.5-35.76.61-50.84-2.13-8.21-1.49-22.93-7.03-35.22-13.36-14.15-7.36-22.83-17.14-25.42-28.73-1.42-6.25-1.03-18.77.78-25.81 1.95-7.74 7.43-19.01 12.44-25.59 22.29-29.33 68.29-54.75 115.47-63.67 15.03-2.82 36.3-3.13 52.44-.71 17.66 2.66 33.09 7.6 48.34 15.42zm196.13-8.85c.17 21.37-.32 70.18-.71 72.21-.08.71-4.13.78-5.86.17-1.08-.39-1.25-4.62-1.25-39.14 0-24.71.31-38.64.78-38.64.39 0 2.2.57 3.91 1.25 2.81 1.17 3.13 1.49 3.13 4.15zm33.88 40c-.32 38.86-.5 60.45-.54 64.77-.64 82.54-.71 84.96-3.69 92.07-4.84 11.66-4.6 14.01-4.13-37.15.15-25.59.53-51.48.71-57.51.14-6.01.29-23.01.39-37.79 0-17.85.22-26.74.78-26.74.47 0 2.1.54 3.67 1.17.37.16 1.31.55 2.81 1.18zm-475.3 30.25c-.17.36-1 2.13-2.49 5.33-.56-4.69-.87-7.3-.93-7.82-1.49-12.52-1.49-13.08 1.47-14.94 1.34-.95 2.76-1.56 2.98-1.41.25.14.71 3.27.95 6.89.47 6.33.3 6.94-1.98 11.95zM76.35 413.9c4.21 32.31 4.53 36.93 2.65 34.98-.22-.25-2.03-11.13-3.91-24.18-12.2-84.35-12.13-83.79-11.1-84.43 2.1-1.42 2.81-.64 3.35 3.76.71 6.41 6.18 48.97 9.01 69.87zm50.07-8.29c0 2.17-2.82 4.23-4.06 2.96-.39-.4-1.42-7.04-2.2-14.7-.86-7.74-1.71-15.81-1.96-17.91-.03-.26-.18-1.57-.46-3.91 1.64 1.87 2.56 2.92 2.74 3.13 1.57 1.7 2.95 3.81 3.2 4.69.47 1.96 2.74 23.15 2.74 25.74zm62.5 16.11c1.17 15.25 1.34 14.08-1.86 14.08-3.3 0-3.22.24-4.3-13.55-1.1-14-1.1-13.83 1-13.83 1.03 0 2.35.46 3.06.93.85.78 1.42 3.91 2.1 12.37zm60.71-.78c.25 4.93.96 16.03 1.57 24.63 2.2 31.6 2.28 35.61.96 35.61-1.5 0-1.67-1.17-3.38-23.48-.76-10.78-1.63-21.56-2.59-32.32-.69-8.5-1.17-15.64-.93-15.79.86-.95 3.13-.24 3.52.93.15.78.53 5.47.85 10.42zm-140.81 64.55c1.1 10.31 2.17 20.26 2.42 22.12.02.22.16 1.35.39 3.38-1.17-.75-1.83-1.17-1.96-1.25-1.49-1.03-2.02-2.03-2.02-3.84 0-4.94-3.38-37.4-5.95-57.27-1.49-11.27-2.66-21.19-2.66-22.15 0-1.63 1.88-2.27 2.67-.93.46.71 3.41 25.74 7.11 59.94zm443.84 5.47c-1.18 1.73-1.83 2.69-1.96 2.88-4.47 6.58-4.23 7.82-3.98-28.78.01-2.24.06-13.43.14-33.57 1.73-1.79 2.69-2.78 2.89-2.98 1.56-1.57 3.13-2.88 3.44-2.88.25 0 .25 14.71 0 32.63 0 0-.18 10.9-.53 32.7zm-72.77 69.54c-.78.86-1.49 1.42-1.71 1.18-.56-.61-1.34-99.76-.71-100.3.32-.31 1.1-.46 1.81-.38 1 .22 1.25 5.79 1.57 49.12.38 45.47.28 48.99-.96 50.38zm-251.3-42.48c.46 7.36.46 7.6-1.25 8.14-.93.32-2.03.25-2.34-.14-.54-.57-2.28-17.92-4.38-44.69-.04-.42-.23-2.56-.56-6.4h2.44c2.25 0 2.42.15 2.82 4.06.53 4.83 2.49 28.08 3.27 39.03zm-63.84-7.18c0 2.02.95 12.58 1.95 23.53 2.98 29.97 3.23 34.03 1.88 33.25-2.03-1.18-3.83-2.96-3.44-3.43.17-.31-.15-4.23-.79-8.69a411.54 411.54 0 0 1-1.56-16.44c-.3-4.51-1-12.82-1.64-18.37-1.49-13.69-1.39-15.26.32-15.26.86.03 1.7.36 2.34.93.54.57.94 2.52.94 4.48zm37.1 62.42c.53 11.73.29 12.59-2.91 10.17-.93-.71-1.56-3.67-2.49-12.58-1.64-16.14-1.74-15.5 1.32-15.18 2.27.21 2.59.53 3.05 3.34.25 1.74.71 8.14 1.03 14.25z" id="b"/>
	<path d="M171.35 286.05c5.57 2.81 11.19 1.47 14.1-3.38 5.48-8.91-3.45-19.23-13-15.09-8.14 3.51-8.76 14.56-1.1 18.47zm54.14 9.39c7.43 4.44 17.06-1.42 17.06-10.34 0-8.61-9.85-14.4-17.06-10-7.51 4.6-7.51 15.72 0 20.34z" id="c"/>
</svg></g><g id="Z_16"><svg width="48" height="48" xmlns="http://www.w3.org/2000/svg"
	xmlns:xlink="http://www.w3.org/1999/xlink" viewBox="0 0 640 640">
	<path d="M139.59 95.09h365.98v448.96H139.59V95.09z" fill="#fff"/>
	<path d="M0 320c0 176.73 143.27 320 320 320 176.73-.01 320-143.28 320-320.01C639.99 143.27 496.72 0 320 0 143.27 0 0 143.27 0 320zm448.7-156.71c3.56 22.73 5.99 60.49-49.8 89.17 43.2 11.67 57.64 39.46 58.14 66.82 1.18 64.21-61.16 103.48-117.28 97.21.04-3.24.38-29.16.42-32.4 49.69 5.7 73.81-26.69 74.89-57.11 1.1-31.17-26.21-52.68-74.89-51.73-.07-3.05-.68-27.43-.75-30.48 60.94-4.52 78.11-46.71 70.52-70.15-10.38-32.09-43.55-38.02-72.86-26.73-.34 2.38-2.01 14.3-5.01 35.75l-23.32-.75c1.2-35.64 1.86-55.43 2-59.39 11.43-6.55 34.59-12.35 58.77-12.4 35.35-.07 72.88 12.13 79.17 52.19zM302.5 486.45c12.79-.92 30.07 3.53 45.71 6.03v26.34l-138.73-.09V492c14.95-2.05 28.75-5.47 45.1-5.84v-206.3c-18.4-.31-35.72-4.35-44.43-7.35-.01-1.71-.01-10.26 0-25.65l92.35-.78v240.37z" id="b"/>
</svg></g><style>@keyframes scroll{0{transform:translateX(0)}to{transform:translateX(850px)}}#_>g{position:absolute;top:0;left:0;transform:translateX(-48px);animation:scroll 15s linear infinite}#_>#Z_1{animation-delay:-882ms}#_>#Z_2{animation-delay:-1764ms}#_>#Z_3{animation-delay:-2646ms}#_>#Z_4{animation-delay:-3528ms}#_>#Z_5{animation-delay:-4410ms}#_>#Z_6{animation-delay:-5292ms}#_>#Z_7{animation-delay:-6174ms}#_>#Z_8{animation-delay:-7056ms}#_>#Z_9{animation-delay:-7938ms}#_>#Z_10{animation-delay:-8820ms}#_>#Z_11{animation-delay:-9702ms}#_>#Z_12{animation-delay:-10584ms}#_>#Z_13{animation-delay:-11466ms}#_>#Z_14{animation-delay:-12348ms}#_>#Z_15{animation-delay:-13230ms}#_>#Z_16{animation-delay:-14112ms}</style></svg>