<svg id="_" version="1.1" xmlns="http://www.w3.org/2000/svg" width="850" viewBox="0 0 850 48" xml:space="preserve"><g><svg width="48" height="48" xmlns="http://www.w3.org/2000/svg" viewBox="0 0 256 256"><path d="M0 0v256h256V0h-98.4c0 15-11.1 30-29.4 30A29.5 29.5 0 0198.5 0z" fill="#007acc"></path><path d="M100.35 117.107h2.025l52.506 115.818h-24.818l-5.402-13H78.063l-5.402 13H49.869zm15.87 83.065l-8.274-19.922q-1.35-3.377-2.532-6.753-1.182-3.377-2.195-6.585-1.182-3.714-2.195-7.26-1.181 4.222-2.194 7.43-1.013 3.207-2.195 6.921-1.182 3.546-2.364 6.247l-8.273 19.922zm79.306 34.273q-8.273 0-15.026-1.857-6.753-1.858-12.156-5.065-5.402-3.208-9.454-7.598-3.883-4.558-6.416-9.623l19.247-11.143q3.883 6.247 9.117 10.299 5.402 4.052 14.181 4.052 7.429 0 11.65-3.208 4.39-3.377 4.39-8.442 0-6.077-4.56-9.116-4.558-3.04-12.661-6.585l-5.91-2.532q-6.415-2.702-11.649-5.91-5.234-3.207-8.948-7.428-3.714-4.22-5.74-9.623-2.026-5.403-2.026-12.663 0-6.584 2.364-12.324 2.532-5.74 6.922-9.961 4.558-4.22 10.974-6.585 6.415-2.363 14.35-2.363 11.312 0 19.416 4.39 8.272 4.22 14.182 14.519l-18.403 11.818q-3.039-5.403-6.584-7.766-3.546-2.364-8.61-2.364-5.234 0-8.273 2.87-3.04 2.87-3.04 7.26 0 5.403 3.377 8.273 3.546 2.701 11.143 6.078l5.91 2.532q7.596 3.208 13.337 6.753 5.909 3.377 9.792 7.766 4.052 4.221 6.078 9.793 2.195 5.402 2.195 12.83 0 7.936-3.04 14.183-2.87 6.077-8.103 10.298-5.234 4.221-12.494 6.416-7.09 2.026-15.532 2.026z" fill="#fff"></path></svg></g><g id="a"><svg width="48" height="48" xmlns="http://www.w3.org/2000/svg" viewBox="0 0 128 128"><path fill="#03599C" d="M117.5 33.5l.3-.2c-.6-1.1-1.5-2.1-2.4-2.6L67.1 2.9c-.8-.5-1.9-.7-3.1-.7-1.2 0-2.3.3-3.1.7l-48 27.9c-1.7 1-2.9 3.5-2.9 5.4v55.7c0 1.1.2 2.3.9 3.4l-.2.1c.5.8 1.2 1.5 1.9 1.9l48.2 27.9c.8.5 1.9.7 3.1.7 1.2 0 2.3-.3 3.1-.7l48-27.9c1.7-1 2.9-3.5 2.9-5.4V36.1c.1-.8 0-1.7-.4-2.6zM64 88.5c9.1 0 17.1-5 21.3-12.4l12.9 7.6c-6.8 11.8-19.6 19.8-34.2 19.8-21.8 0-39.5-17.7-39.5-39.5S42.2 24.5 64 24.5c14.7 0 27.5 8.1 34.3 20l-13 7.5C81.1 44.5 73.1 39.5 64 39.5c-13.5 0-24.5 11-24.5 24.5s11 24.5 24.5 24.5z"/></svg></g><g id="b"><svg width="48" height="48" xmlns="http://www.w3.org/2000/svg" viewBox="0 0 128 128"><path d="M59.016 13.328c-.239.024-1 .113-1.688.176-9.777 1.023-19.406 5.164-27.258 11.738-1.449 1.203-4.75 4.504-5.953 5.953-6.5 7.766-10.3 16.48-11.703 26.793-.312 2.29-.312 10.016 0 12.305 1.402 10.312 5.203 19.027 11.703 26.793 1.203 1.45 4.504 4.75 5.953 5.953 7.766 6.5 16.48 10.3 26.793 11.703 2.29.313 10.016.313 12.305 0 10.312-1.402 19.027-5.203 26.793-11.703 1.45-1.203 4.75-4.504 5.953-5.953 6.5-7.766 10.3-16.48 11.7-26.793.316-2.29.316-10.016 0-12.305-1.4-10.312-5.2-19.027-11.7-26.793-1.203-1.449-4.504-4.75-5.953-5.953-7.738-6.476-16.543-10.324-26.719-11.687-1.101-.153-2.699-.215-5.664-.239-2.262-.027-4.328-.011-4.562.012zm.625 5.402c0 1.461.097 4.637.238 7.653.074 1.472.16 3.586.2 4.687.136 3.903.55 14.14.612 15.055l.063.91-.563-.062c-.312-.024-.601-.098-.652-.137-.035-.05-.125-.914-.176-1.926-.222-4.45-.96-21.719-1.035-24.242l-.078-2.777.352-.047c.187-.028.5-.063.699-.078l.34-.012zm11.964-.3c.012.011.051 3.789.086 8.39.051 4.614.114 8.75.153 9.2.035.464.023.863-.04.89-.05.035-.363.035-.675 0l-.574-.05-.086-3.641a692.868 692.868 0 00-.14-4.961c-.099-2.215-.188-9.727-.11-9.914.047-.14.187-.153.71-.063.364.074.665.137.676.149zm-28.921 4.187c.078.113.664 7.004 1.39 16.016.239 3.066.473 5.867.512 6.215.062.636.05.664-.352.914-.222.136-.449.25-.5.25-.035 0-.109-.325-.148-.727-.176-1.625-.852-9.476-1.324-15.152-.278-3.34-.528-6.328-.563-6.653-.062-.55-.05-.601.274-.773.398-.215.625-.25.71-.09zm34.421 2.516c.352.125.387.187.465.898.125 1.25.086 7.227-.05 7.227-.364 0-1.114-.426-1.176-.664-.04-.149-.074-1.922-.074-3.938 0-4.062-.051-3.824.835-3.523zm-23.093.586c0 .336.09 2.199.187 4.164.102 1.96.215 4.449.266 5.527.086 2.176.11 2.098-.727 2.149-.414.011-.414.011-.437-.614-.024-.347-.086-1.437-.164-2.437-.063-1-.211-3.164-.313-4.813a117.11 117.11 0 00-.261-3.64c-.075-.625-.063-.649.273-.774.203-.074.55-.136.777-.136.399-.012.399-.012.399.574zm34.683 1.715l.426.171.09 1.676c.035.914.062 2.89.035 4.38l-.035 2.722-.527-.262-.524-.25-.039-4.152c-.023-2.285-.012-4.223.012-4.313.05-.187.05-.187.562.028zM65.867 29.07c.074.075.25 6.137.262 9.215l.012 1.852-.586-.09c-.34-.04-.614-.074-.625-.086-.04-.027-.414-9.29-.414-10.191v-.926l.636.074c.364.05.676.113.715.152zm28.793.887c.153.176.176 2.914.215 18.016.035 17.343.035 17.793-.188 17.793a.806.806 0 01-.44-.164c-.188-.137-.212-1.649-.274-16.465-.051-8.977-.114-17.13-.149-18.117l-.078-1.801.363.261c.215.153.454.364.551.477zM83.445 32.52c.063.05.125.761.137 1.578.063 2.761.074 19.703.012 19.754-.024.023-.25-.04-.5-.137l-.45-.188v-21.27l.352.075c.188.05.387.125.45.188zm-34.507.699c.035.34.097 1.101.136 1.726.04.614.125 2.016.2 3.102.152 2.2.124 2.34-.587 2.34-.374 0-.425-.04-.476-.414-.125-.739-.563-6.891-.5-6.989.062-.09.715-.312 1.012-.34.078-.011.175.25.215.575zm-20.68 3.191c.137 1.324.41 4.102.613 6.164.211 2.063.387 3.813.387 3.887 0 .152-.965.625-1.063.527-.062-.062-1.312-11.129-1.312-11.629 0-.3.96-1.562 1.086-1.425.039.023.164 1.136.289 2.476zm49.023 1.313l.364.21.011 2.704c.012 1.472.04 3.125.04 3.66.023 1.125-.114 1.312-.79 1.078l-.386-.14V44.16c0-.597-.04-2.336-.09-3.875l-.075-2.777h.29c.148 0 .437.101.636.215zm-43.535 4.851c.227 2.399.586 6.45.824 9l.426 4.63-.488.483-.473.489-.09-.989c-.05-.55-.3-3.097-.562-5.675a1449.23 1449.23 0 01-.824-8.301l-.352-3.602.488-.449c.438-.414.489-.426.575-.2.05.126.261 2.2.476 4.614zm-9.363 1.512c.273 2.465 1 9.016 1.625 14.555s1.21 10.875 1.324 11.875c.102 1 .273 2.515.375 3.379.176 1.46.176 1.562-.023 1.71-.301.227-.426.2-.426-.062 0-.113-.113-1.063-.25-2.086-.227-1.715-.602-4.617-1.438-11.129a740.832 740.832 0 01-.75-5.812c-.25-1.891-.613-4.703-.816-6.254-.2-1.551-.535-4.2-.75-5.914-.223-1.7-.36-3.211-.324-3.375.09-.336.824-1.512.902-1.438.023.035.273 2.074.55 4.55zm-3.828 5.387c.187 1.504.539 4.242.777 6.101.234 1.852.535 4.164.672 5.13l.238 1.75-.262.226c-.148.125-.3.172-.351.125-.047-.051-.149-.551-.223-1.102a995.27 995.27 0 00-1.039-7.129l-.887-6.125.286-.851c.152-.461.312-.836.351-.836.051 0 .238 1.226.438 2.71zm68.64-1.637c.176.176.203.95.203 6.691v6.489h-.351c-.762 0-.75.187-.8-6.914l-.036-6.465h.398c.211 0 .489.086.586.199zm-27.367 2.238c2.824.426 5.29 1.215 7.727 2.465 1.574.813 2.324 1.375 4.074 3.05 2.601 2.49 4.203 4.665 5.703 7.74 2.188 4.476 3.04 8.437 4.113 19.066.489 4.765 1.125 13.402 1.262 16.94.04 1.028.125 2.716.203 3.75.137 2.204.297 1.903-1.64 2.84-2.688 1.302-5.278 2.2-8.688 3.04-4.176 1.023-6.879 1.347-11.004 1.363l-3 .012.024-1.438c0-.789.074-2.625.152-4.062.375-6.965.297-15.754-.188-20.633-.277-2.8-.812-6.2-1.113-6.95-.062-.163.223-.3 1.461-.726 2.266-.789 4.227-1.777 4.527-2.261.54-.926-.425-2.254-1.652-2.254-.21 0-.848.226-1.437.488-2.801 1.289-8.414 2.8-11.653 3.14-2.238.239-5.715.098-8.125-.34-1.312-.238-3.664-1.124-5.629-2.136-2.261-1.176-3.648-2.738-4.062-4.59-.227-1-.164-3 .125-4.125.312-1.238 1.187-3.039 1.988-4.09 3.563-4.687 10.914-8.75 18.453-10.175 2.403-.45 5.801-.5 8.38-.114zm38.57.387c.45.187.5.238.5.664.028 3.414-.05 11.215-.113 11.54-.012.112-.66.124-.937.026-.172-.062-.2-.738-.2-6.254 0-3.949.051-6.175.125-6.175.063 0 .352.09.625.199zm5.465 6.867l.45.188-.086 10.351c-.102 13.192-.114 13.578-.59 14.715-.774 1.863-.735 2.238-.66-5.937.023-4.09.085-8.227.113-9.192.023-.96.047-3.676.062-6.039 0-2.852.035-4.273.125-4.273.075 0 .336.086.586.187zm-75.191 3.113c.074 1.012.047 1.11-.317 1.91l-.398.852-.148-1.25c-.239-2-.239-2.09.234-2.387.215-.152.441-.25.477-.226.039.023.113.523.152 1.101zm-7.73 7.54c.113 1.023.988 7.824 1.44 11.164.673 5.164.723 5.902.423 5.59-.035-.04-.325-1.778-.625-3.864-1.95-13.48-1.938-13.39-1.774-13.492.336-.227.45-.102.535.601zm9.003 5.726c.075.313.438 3.7.438 4.113 0 .348-.45.676-.649.473-.062-.063-.226-1.125-.351-2.348-.137-1.238-.274-2.527-.313-2.863l-.074-.625.438.5c.25.273.472.61.511.75zm10.09 4.711c.137.125.227.625.336 1.977.188 2.437.215 2.25-.297 2.25-.527 0-.515.039-.687-2.165-.176-2.238-.176-2.21.16-2.21.164 0 .375.074.488.148zm9.903.187c.023.125.085.875.136 1.665.04.789.153 2.562.25 3.937.352 5.05.364 5.691.153 5.691-.239 0-.266-.187-.54-3.753a274.195 274.195 0 00-.414-5.165c-.109-1.359-.187-2.5-.148-2.523.137-.152.5-.039.563.148zm-23.504 2.403c.074.113.546 4.113 1.136 9.578.176 1.648.348 3.238.387 3.535l.063.54-.313-.2c-.238-.164-.324-.324-.324-.613 0-.79-.54-5.977-.95-9.153-.238-1.8-.425-3.386-.425-3.539 0-.261.3-.363.426-.148zm72.152 5.226l-.086 5.227-.313.46c-.714 1.052-.675 1.25-.636-4.6l.023-5.364.461-.477c.25-.25.5-.46.55-.46.04 0 .04 2.351 0 5.214zm-11.563 8.29c.063 7.265.047 7.828-.152 8.05-.125.137-.238.227-.273.188-.09-.098-.215-15.942-.114-16.028.051-.05.176-.074.29-.062.16.035.199.926.25 7.851zm-40.835-4.977c.085.773.398 4.488.523 6.238.074 1.176.074 1.215-.2 1.3-.148.052-.324.04-.374-.022-.086-.09-.364-2.864-.7-7.141l-.09-1.024h.391c.36 0 .387.024.45.649zm-9.829 4.375c.086.09.149.402.149.715 0 .324.152 2.011.312 3.761.477 4.79.516 5.438.301 5.313-.324-.188-.613-.473-.55-.547.027-.05-.024-.676-.126-1.39a65.54 65.54 0 01-.25-2.626c-.047-.722-.16-2.05-.261-2.937-.239-2.188-.223-2.438.05-2.438a.59.59 0 01.375.149zm5.914 8.414c.04.277.114 1.3.164 2.277.086 1.875.047 2.012-.464 1.625-.149-.113-.25-.586-.399-2.011-.261-2.579-.277-2.477.211-2.426.363.035.414.086.488.535zm0 0"/><path d="M39.809 56.063c-1.301.562-1.399 2.328-.176 2.953.89.449 1.789.234 2.254-.54.875-1.425-.551-3.074-2.078-2.413zm8.476 1.203c-1.2.734-1.2 2.511 0 3.25 1.188.71 2.727-.227 2.727-1.653 0-1.375-1.575-2.3-2.727-1.597zm0 0"/></svg>
</g><g id="c"><svg width="48" height="48" xmlns="http://www.w3.org/2000/svg" viewBox="0 0 128 128"><path d="M124.8 52.1c-4.3-2.5-10-2.8-14.8-1.4-.6-5.2-4-9.7-8-12.9l-1.6-1.3-1.4 1.6c-2.7 3.1-3.5 8.3-3.1 12.3.3 2.9 1.2 5.9 3 8.3-1.4.8-2.9 1.9-4.3 2.4-2.8 1-5.9 2-8.9 2H79V49H66V24H51v12H26v13H13v14H1.8l-.2 1.5c-.5 6.4.3 12.6 3 18.5l1.1 2.2.1.2c7.9 13.4 21.7 19 36.8 19 29.2 0 53.3-13.1 64.3-40.6 7.4.4 15-1.8 18.6-8.9l.9-1.8-1.6-1zM28 39h10v11H28V39zm13.1 44.2c0 1.7-1.4 3.1-3.1 3.1-1.7 0-3.1-1.4-3.1-3.1 0-1.7 1.4-3.1 3.1-3.1 1.7.1 3.1 1.4 3.1 3.1zM28 52h10v11H28V52zm-13 0h11v11H15V52zm27.7 50.2c-15.8-.1-24.3-5.4-31.3-12.4 2.1.1 4.1.2 5.9.2 1.6 0 3.2 0 4.7-.1 3.9-.2 7.3-.7 10.1-1.5 2.3 5.3 6.5 10.2 14 13.8h-3.4zM51 63H40V52h11v11zm0-13H40V39h11v11zm13 13H53V52h11v11zm0-13H53V39h11v11zm0-13H53V26h11v11zm13 26H66V52h11v11zM38.8 81.2c-.2-.1-.5-.2-.8-.2-1.2 0-2.2 1-2.2 2.2 0 1.2 1 2.2 2.2 2.2s2.2-1 2.2-2.2c0-.3-.1-.6-.2-.8-.2.3-.4.5-.8.5-.5 0-.9-.4-.9-.9.1-.4.3-.7.5-.8z" fill="#019BC6"/></svg></g><g id="d"><svg width="48" height="48" xmlns="http://www.w3.org/2000/svg" viewBox="0 0 128 128"><path fill-rule="evenodd" clip-rule="evenodd" fill="#DD732A" d="M7.275 51.747l-3.221 2.579c-.477-1.941-.046-3.636.455-5.277 1.034-3.391 2.858-6.386 4.936-9.232.753-1.032 1.29-2.053 1.267-3.443-.085-4.919.436-9.778 2.122-14.443.86-2.379 2.022-4.592 4.008-6.514.783 3.826 1.493 7.503 3.586 10.261 1.51-1.339 3.021-2.613 4.457-3.965 8.624-8.111 18.778-13.179 30.482-14.847 14.681-2.093 28.23 1.056 40.53 9.432 1.162.792 2.496 1.333 3.763 1.962 5.825 2.893 10.222 7.198 12.976 13.119.462.991.82 2.03 1.227 3.046l.366-.063-1.584-9.499c6.35 8.911 8.353 18.801 8.895 29.179 1.186-1.655 1.177-3.615 1.819-5.49.211 1.362.475 2.719.624 4.087.586 5.377-.457 10.593-1.447 15.845-2.339 12.405-7.712 23.385-15.81 32.926-9.22 10.864-20.737 18.118-35.143 19.84-20.904 2.498-38.465-4.219-52.648-19.764C12.129 94.031 7.628 85.353 5.613 75.47c-1.524-7.481-1.157-14.921 1.326-22.198l.389-1.116c.022-.065-.016-.15-.053-.409zm94.636-9.92l.396-.342 4.464 3.447c-.059-1.046-.014-2.147-.195-3.208-.795-4.628-3.6-7.983-7.086-10.862-4.369-3.608-9.383-6.09-14.579-8.244-.511-.212-1.012-.449-1.516-.674l.062-.522 7.325-.434c-2.706-4.465-7.356-5.711-12.068-6.993l.587-.311c-9.55-2.982-19.015-3.216-28.551-.776-8.871 2.27-22.19 10.357-24.248 14.72l.6-.146c3.348-.822 6.69-1.048 10.062-.07.367.106.979-.137 1.295-.421 3.159-2.829 6.672-5.044 10.742-6.297 1.282-.395 2.604-.658 3.908-.981-.108.441-.305.621-.521.77-4.22 2.9-7.064 6.714-7.857 11.877-.043.283 0 .708.181.879 1.869 1.758 3.724 3.537 5.693 5.176.681.566 1.641.946 2.524 1.086 1.706.271 3.449.322 5.178.444 1.063.075 1.751.826 1.37 1.687-.565 1.282-1.182 2.471-2.479 3.336-2.454 1.638-4.726 3.551-7.093 5.322-.591.443-.614.845-.307 1.499.567 1.208 1.109 2.447 1.473 3.727.46 1.618.616 3.291.196 5.002-1.337-.295-2.562-.586-3.794-.831-1.238-.246-2.486-.438-3.728-.667-1.552-.285-2.876.259-3.672 1.524-.923 1.468-.938 3.002.049 4.26 2.011 2.561 4.288 4.858 6.977 6.712 2.225 1.536 4.726 2.39 7.388 1.82 1.853-.396 3.668-1.189 5.354-2.081 5.112-2.701 10.879-1.79 14.416 2.414.633.751 1.012 1.603.475 2.485-.516.847-1.382 1.046-2.377.797-1.034-.259-1.99-.081-2.924.539-2.465 1.636-4.886 3.378-7.5 4.744-4.211 2.201-8.8 2.942-13.539 2.766-.488-.016-.976 0-1.635 0 .244.289.331.412.438.515 3.423 3.319 7.347 5.87 11.876 7.363 4.987 1.644 10.084 2.317 15.258.888 5.799-1.601 10.354-5.114 14.25-9.553 1.57-1.79 2.994-3.707 4.485-5.565l.373.081-1.316 8.981c7.149-8.746 7.377-18.745 6.371-29.287 2.057 2.291 2.681 4.977 3.86 7.669 2.408-8.36 1.217-16.32-.641-24.265z"/></svg></g><g id="e"><svg width="48" height="48" xmlns="http://www.w3.org/2000/svg" viewBox="0 0 128 128"><path fill="#F0DB4F" d="M2 1v125h125V1H2zm66.119 106.513c-1.845 3.749-5.367 6.212-9.448 7.401-6.271 1.44-12.269.619-16.731-2.059-2.986-1.832-5.318-4.652-6.901-7.901l9.52-5.83c.083.035.333.487.667 1.071 1.214 2.034 2.261 3.474 4.319 4.485 2.022.69 6.461 1.131 8.175-2.427 1.047-1.81.714-7.628.714-14.065C58.433 78.073 58.48 68 58.48 58h11.709c0 11 .06 21.418 0 32.152.025 6.58.596 12.446-2.07 17.361zm48.574-3.308c-4.07 13.922-26.762 14.374-35.83 5.176-1.916-2.165-3.117-3.296-4.26-5.795 4.819-2.772 4.819-2.772 9.508-5.485 2.547 3.915 4.902 6.068 9.139 6.949 5.748.702 11.531-1.273 10.234-7.378-1.333-4.986-11.77-6.199-18.873-11.531-7.211-4.843-8.901-16.611-2.975-23.335 1.975-2.487 5.343-4.343 8.877-5.235l3.688-.477c7.081-.143 11.507 1.727 14.756 5.355.904.916 1.642 1.904 3.022 4.045-3.772 2.404-3.76 2.381-9.163 5.879-1.154-2.486-3.069-4.046-5.093-4.724-3.142-.952-7.104.083-7.926 3.403-.285 1.023-.226 1.975.227 3.665 1.273 2.903 5.545 4.165 9.377 5.926 11.031 4.474 14.756 9.271 15.672 14.981.882 4.916-.213 8.105-.38 8.581z"/></svg></g><g id="f"><svg width="48" height="48" version="1.1"
	xmlns="http://www.w3.org/2000/svg" viewBox="0 0 128 128" xml:space="preserve">
	<style/>
	<path fill="navy" d="M127.3 15.1c0-7.9-6.4-14.3-14.3-14.3S98.6 7.1 98.6 15.1 105 29.4 113 29.4s14.3-6.4 14.3-14.3"/>
	<g fill="navy">
		<path d="M64 15.1c-27 0-49 21.9-49 49s21.9 49 49 49 49-21.9 49-49-22-49-49-49zM50.7 88.5h-20V56.4h4.1v28.5h15.9v3.6zm22.3 0h-3.3v-3.2c-2.2 3-4.3 4.2-7.7 4.2-4.5 0-7.4-2.5-7.4-6.3V65.4h3.7v16.3c0 2.8 1.9 4.5 4.8 4.5 3.8 0 6.3-3.1 6.3-7.8v-13H73v23.1zm-3-44.8c0-7.9 6.4-14.3 14.3-14.3s14.3 6.4 14.3 14.3S92.2 58 84.3 58 70 51.6 70 43.7zm29.8 45.4c-1.2.3-1.8.4-2.5.4-2.4 0-3.5-1.1-3.8-3.4-2.6 2.4-4.9 3.4-7.8 3.4-4.7 0-7.6-2.6-7.6-6.8 0-3 1.4-5.1 4.1-6.2 1.4-.6 2.2-.7 7.4-1.4 2.9-.4 3.8-1 3.8-2.6v-1c0-2.2-1.9-3.4-5.2-3.4-3.4 0-5.1 1.3-5.4 4.1h-3.7c.1-2.3.5-3.6 1.6-4.8 1.5-1.7 4.3-2.7 7.7-2.7 5.7 0 8.7 2.2 8.7 6.3v13.6c0 1.1.7 1.8 2 1.8.2 0 .4 0 .8-.1l-.1 2.8z"/>
		<path d="M81.9 82.6c0 2.3 1.7 3.7 4.5 3.7 2.2 0 4-.7 5.5-2.1 1.1-1 1.5-1.8 1.5-3v-4.1c-1.2.6-2 .7-5.9 1.3-3.9.5-5.6 1.8-5.6 4.2z"/>
	</g>
	<path fill="gray" d="M66.3 128l-.1-1.5c1.8-.1 3.6-.2 5.4-.4l.2 1.5c-1.8.2-3.7.3-5.5.4zm-5.6 0c-1.9-.1-3.7-.3-5.6-.5l.2-1.5c1.8.2 3.6.4 5.4.5v1.5zm16.6-1.4l-.3-1.4c1.8-.4 3.5-.8 5.3-1.4l.4 1.4c-1.7.6-3.5 1.1-5.4 1.4zm-27.7-.2c-1.8-.4-3.6-.9-5.4-1.5l.5-1.4c1.7.6 3.5 1 5.3 1.5l-.4 1.4zm38.4-3l-.6-1.4c1.7-.7 3.3-1.4 5-2.3l.7 1.3c-1.7.9-3.4 1.7-5.1 2.4zm-49-.4c-1.7-.7-3.4-1.5-5-2.4l.7-1.3c1.6.9 3.3 1.6 4.9 2.4L39 123zm59-4.7l-.8-1.2c1.5-1 3-2 4.5-3.1l.9 1.2c-1.5 1.1-3.1 2.1-4.6 3.1zm-68.8-.6c-1.6-1-3.1-2.1-4.5-3.2l.9-1.2c1.4 1.1 2.9 2.2 4.4 3.2l-.8 1.2zm77.7-6.1l-1-1.1c1.3-1.2 2.7-2.5 3.9-3.8l1.1 1c-1.3 1.3-2.7 2.6-4 3.9zm-86.5-.7c-1.4-1.3-2.7-2.6-3.9-4l1.1-1c1.2 1.3 2.5 2.7 3.8 3.9l-1 1.1zm94.1-7.5l-1.2-.9c1.1-1.4 2.2-2.9 3.2-4.4l1.2.8c-1 1.5-2.1 3.1-3.2 4.5zm-101.6-.8c-1.1-1.5-2.2-3-3.2-4.6l1.2-.8c1 1.5 2 3 3.1 4.5l-1.1.9zm107.7-8.5l-1.3-.7c.9-1.6 1.6-3.3 2.4-4.9l1.3.5-2.4 5.1zM7 93.1c-.8-1.7-1.6-3.4-2.3-5.1l1.3-.5c.7 1.7 1.4 3.3 2.3 5l-1.3.6zm117.9-9.3l-1.4-.5c.6-1.7 1-3.5 1.5-5.3l1.4.3c-.4 1.9-.9 3.7-1.5 5.5zm-122.1-1c-.5-1.8-1-3.6-1.4-5.4l1.4-.3c.4 1.8.8 3.5 1.4 5.3l-1.4.4zm124.6-9.9l-1.5-.2c.2-1.8.4-3.6.5-5.4l1.5.1c0 1.8-.2 3.7-.5 5.5zM.5 71.9C.2 70 .1 68.2 0 66.3l1.5-.1c.1 1.8.2 3.6.4 5.4l-1.4.3zm126-10.1c-.1-1.8-.2-3.6-.4-5.4l1.5-.2c.2 1.8.4 3.7.4 5.6h-1.5zm-125-1L0 60.7c.1-1.9.3-3.7.5-5.6l1.5.3c-.2 1.8-.4 3.6-.5 5.4zM125.2 51c-.4-1.8-.8-3.6-1.4-5.3l1.4-.4c.5 1.8 1 3.6 1.4 5.4l-1.4.3zM3 50l-1.4-.3c.4-1.8.9-3.6 1.5-5.4l1.4.5C3.9 46.5 3.4 48.2 3 50zm119-9.4c-.7-1.7-1.4-3.4-2.3-5l1.3-.7c.8 1.7 1.6 3.4 2.3 5.1l-1.3.6zm-115.6-1L5 39.1c.7-1.7 1.5-3.4 2.4-5l1.3.7c-.8 1.5-1.6 3.2-2.3 4.8zm5.1-9.6l-1.2-.8c1-1.6 2.1-3.1 3.2-4.5l1.2.9c-1.2 1.4-2.2 2.9-3.2 4.4zm6.7-8.6l-1.1-1c1.3-1.4 2.6-2.7 4-3.9l1 1.1c-1.4 1.2-2.7 2.5-3.9 3.8zm8.1-7.3l-.9-1.2c1.5-1.1 3-2.2 4.6-3.2l.8 1.2c-1.6 1.1-3.1 2.1-4.5 3.2zm67-5.4c-1.6-.8-3.3-1.6-4.9-2.3l.5-1.4c1.7.7 3.4 1.5 5 2.4l-.6 1.3zm-57.8-.4L34.8 7c1.7-.8 3.4-1.6 5.1-2.3l.6 1.3c-1.7.7-3.4 1.5-5 2.3zm47.7-3.8c-1.7-.6-3.5-1-5.3-1.4l.3-1.4c1.8.4 3.6.9 5.4 1.5l-.4 1.3zm-37.6-.3l-.4-1.4c1.8-.5 3.6-1 5.4-1.4l.3 1.4c-1.8.4-3.6.9-5.3 1.4zm27-2.2c-1.8-.2-3.6-.4-5.4-.5l.1-1.5c1.9.1 3.7.3 5.6.5L72.6 2zm-16.3-.1L56.1.4c1.8-.2 3.7-.4 5.6-.4l.1 1.5c-1.9 0-3.7.2-5.5.4z"/>
</svg></g><g id="g"><svg width="48" height="48" xmlns="http://www.w3.org/2000/svg" viewBox="0 0 128 128"><path fill-rule="evenodd" clip-rule="evenodd" fill="#439934" d="M88.038 42.812c1.605 4.643 2.761 9.383 3.141 14.296.472 6.095.256 12.147-1.029 18.142-.035.165-.109.32-.164.48-.403.001-.814-.049-1.208.012-3.329.523-6.655 1.065-9.981 1.604-3.438.557-6.881 1.092-10.313 1.687-1.216.21-2.721-.041-3.212 1.641-.014.046-.154.054-.235.08l.166-10.051-.169-24.252 1.602-.275c2.62-.429 5.24-.864 7.862-1.281 3.129-.497 6.261-.98 9.392-1.465 1.381-.215 2.764-.412 4.148-.618z"/><path fill-rule="evenodd" clip-rule="evenodd" fill="#45A538" d="M61.729 110.054c-1.69-1.453-3.439-2.842-5.059-4.37-8.717-8.222-15.093-17.899-18.233-29.566-.865-3.211-1.442-6.474-1.627-9.792-.13-2.322-.318-4.665-.154-6.975.437-6.144 1.325-12.229 3.127-18.147l.099-.138c.175.233.427.439.516.702 1.759 5.18 3.505 10.364 5.242 15.551 5.458 16.3 10.909 32.604 16.376 48.9.107.318.384.579.583.866l-.87 2.969z"/><path fill-rule="evenodd" clip-rule="evenodd" fill="#46A037" d="M88.038 42.812c-1.384.206-2.768.403-4.149.616-3.131.485-6.263.968-9.392 1.465-2.622.417-5.242.852-7.862 1.281l-1.602.275-.012-1.045c-.053-.859-.144-1.717-.154-2.576-.069-5.478-.112-10.956-.18-16.434-.042-3.429-.105-6.857-.175-10.285-.043-2.13-.089-4.261-.185-6.388-.052-1.143-.236-2.28-.311-3.423-.042-.657.016-1.319.029-1.979.817 1.583 1.616 3.178 2.456 4.749 1.327 2.484 3.441 4.314 5.344 6.311 7.523 7.892 12.864 17.068 16.193 27.433z"/><path fill-rule="evenodd" clip-rule="evenodd" fill="#409433" d="M65.036 80.753c.081-.026.222-.034.235-.08.491-1.682 1.996-1.431 3.212-1.641 3.432-.594 6.875-1.13 10.313-1.687 3.326-.539 6.652-1.081 9.981-1.604.394-.062.805-.011 1.208-.012-.622 2.22-1.112 4.488-1.901 6.647-.896 2.449-1.98 4.839-3.131 7.182a49.142 49.142 0 01-6.353 9.763c-1.919 2.308-4.058 4.441-6.202 6.548-1.185 1.165-2.582 2.114-3.882 3.161l-.337-.23-1.214-1.038-1.256-2.753a41.402 41.402 0 01-1.394-9.838l.023-.561.171-2.426c.057-.828.133-1.655.168-2.485.129-2.982.241-5.964.359-8.946z"/><path fill-rule="evenodd" clip-rule="evenodd" fill="#4FAA41" d="M65.036 80.753c-.118 2.982-.23 5.964-.357 8.947-.035.83-.111 1.657-.168 2.485l-.765.289c-1.699-5.002-3.399-9.951-5.062-14.913-2.75-8.209-5.467-16.431-8.213-24.642a4498.887 4498.887 0 00-6.7-19.867c-.105-.31-.407-.552-.617-.826l4.896-9.002c.168.292.39.565.496.879a6167.476 6167.476 0 016.768 20.118c2.916 8.73 5.814 17.467 8.728 26.198.116.349.308.671.491 1.062l.67-.78-.167 10.052z"/><path fill-rule="evenodd" clip-rule="evenodd" fill="#4AA73C" d="M43.155 32.227c.21.274.511.516.617.826a4498.887 4498.887 0 016.7 19.867c2.746 8.211 5.463 16.433 8.213 24.642 1.662 4.961 3.362 9.911 5.062 14.913l.765-.289-.171 2.426-.155.559c-.266 2.656-.49 5.318-.814 7.968-.163 1.328-.509 2.632-.772 3.947-.198-.287-.476-.548-.583-.866-5.467-16.297-10.918-32.6-16.376-48.9a3888.972 3888.972 0 00-5.242-15.551c-.089-.263-.34-.469-.516-.702l3.272-8.84z"/><path fill-rule="evenodd" clip-rule="evenodd" fill="#57AE47" d="M65.202 70.702l-.67.78c-.183-.391-.375-.714-.491-1.062-2.913-8.731-5.812-17.468-8.728-26.198a6167.476 6167.476 0 00-6.768-20.118c-.105-.314-.327-.588-.496-.879l6.055-7.965c.191.255.463.482.562.769 1.681 4.921 3.347 9.848 5.003 14.778 1.547 4.604 3.071 9.215 4.636 13.813.105.308.47.526.714.786l.012 1.045c.058 8.082.115 16.167.171 24.251z"/><path fill-rule="evenodd" clip-rule="evenodd" fill="#60B24F" d="M65.021 45.404c-.244-.26-.609-.478-.714-.786-1.565-4.598-3.089-9.209-4.636-13.813-1.656-4.93-3.322-9.856-5.003-14.778-.099-.287-.371-.514-.562-.769 1.969-1.928 3.877-3.925 5.925-5.764 1.821-1.634 3.285-3.386 3.352-5.968.003-.107.059-.214.145-.514l.519 1.306c-.013.661-.072 1.322-.029 1.979.075 1.143.259 2.28.311 3.423.096 2.127.142 4.258.185 6.388.069 3.428.132 6.856.175 10.285.067 5.478.111 10.956.18 16.434.008.861.098 1.718.152 2.577z"/><path fill-rule="evenodd" clip-rule="evenodd" fill="#A9AA88" d="M62.598 107.085c.263-1.315.609-2.62.772-3.947.325-2.649.548-5.312.814-7.968l.066-.01.066.011a41.402 41.402 0 001.394 9.838c-.176.232-.425.439-.518.701-.727 2.05-1.412 4.116-2.143 6.166-.1.28-.378.498-.574.744l-.747-2.566.87-2.969z"/><path fill-rule="evenodd" clip-rule="evenodd" fill="#B6B598" d="M62.476 112.621c.196-.246.475-.464.574-.744.731-2.05 1.417-4.115 2.143-6.166.093-.262.341-.469.518-.701l1.255 2.754c-.248.352-.59.669-.728 1.061l-2.404 7.059c-.099.283-.437.483-.663.722l-.695-3.985z"/><path fill-rule="evenodd" clip-rule="evenodd" fill="#C2C1A7" d="M63.171 116.605c.227-.238.564-.439.663-.722l2.404-7.059c.137-.391.48-.709.728-1.061l1.215 1.037c-.587.58-.913 1.25-.717 2.097l-.369 1.208c-.168.207-.411.387-.494.624-.839 2.403-1.64 4.819-2.485 7.222-.107.305-.404.544-.614.812-.109-1.387-.22-2.771-.331-4.158z"/><path fill-rule="evenodd" clip-rule="evenodd" fill="#CECDB7" d="M63.503 120.763c.209-.269.506-.508.614-.812.845-2.402 1.646-4.818 2.485-7.222.083-.236.325-.417.494-.624l-.509 5.545c-.136.157-.333.294-.398.477-.575 1.614-1.117 3.24-1.694 4.854-.119.333-.347.627-.525.938-.158-.207-.441-.407-.454-.623-.051-.841-.016-1.688-.013-2.533z"/><path fill-rule="evenodd" clip-rule="evenodd" fill="#DBDAC7" d="M63.969 123.919c.178-.312.406-.606.525-.938.578-1.613 1.119-3.239 1.694-4.854.065-.183.263-.319.398-.477l.012 3.64-1.218 3.124-1.411-.495z"/><path fill-rule="evenodd" clip-rule="evenodd" fill="#EBE9DC" d="M65.38 124.415l1.218-3.124.251 3.696-1.469-.572z"/><path fill-rule="evenodd" clip-rule="evenodd" fill="#CECDB7" d="M67.464 110.898c-.196-.847.129-1.518.717-2.097l.337.23-1.054 1.867z"/><path fill-rule="evenodd" clip-rule="evenodd" fill="#4FAA41" d="M64.316 95.172l-.066-.011-.066.01.155-.559-.023.56z"/></svg></g><g id="h"><svg width="48" height="48" xmlns="http://www.w3.org/2000/svg" viewBox="0 0 128 128"><path fill="#83CD29" d="M112.678 30.334L68.535 4.729c-2.781-1.584-6.424-1.584-9.227 0L14.82 30.334C11.951 31.985 10 35.088 10 38.407v51.142c0 3.319 1.992 6.423 4.862 8.083l11.729 6.688c5.627 2.772 7.186 2.772 9.746 2.772 8.334 0 12.662-5.039 12.662-13.828v-50.49C49 42.061 49.445 41 48.744 41h-5.622C42.41 41 41 42.061 41 42.773v50.49c0 3.896-3.616 7.773-10.202 4.48L18.676 90.73c-.422-.23-.676-.693-.676-1.181V38.407c0-.482.463-.966.891-1.213l44.378-25.561a1.508 1.508 0 011.415 0l43.963 25.555c.421.253.354.722.354 1.219v51.142c0 .488.092.963-.323 1.198l-44.133 25.576c-.378.227-.87.227-1.285 0l-11.317-6.749c-.341-.198-.752-.269-1.08-.086-3.145 1.783-3.729 2.02-6.679 3.043-.727.253-1.799.692.408 1.929l14.798 8.754a9.29 9.29 0 004.647 1.246 9.303 9.303 0 004.666-1.246l43.976-25.582c2.871-1.672 4.322-4.764 4.322-8.083V38.407c-.001-3.319-1.452-6.414-4.323-8.073zM77.727 81.445c-11.727 0-14.309-3.235-15.17-9.066-.102-.628-.634-1.379-1.274-1.379h-5.73c-.709 0-1.28.86-1.28 1.566 0 7.466 4.06 16.512 23.454 16.512 14.038 0 22.088-5.455 22.088-15.109 0-9.572-6.467-12.084-20.082-13.886-13.762-1.819-15.16-2.738-15.16-5.962 0-2.658 1.184-6.203 11.374-6.203 9.104 0 12.46 1.954 13.841 8.091.119.577.646.991 1.241.991h5.754c.354 0 .691-.143.939-.396.241-.272.367-.613.336-.979-.893-10.569-7.913-15.494-22.112-15.494-12.632 0-20.166 5.334-20.166 14.275 0 9.698 7.497 12.378 19.622 13.577 14.505 1.422 15.633 3.542 15.633 6.395 0 4.956-3.978 7.067-13.308 7.067z"/></svg></g><g id="i"><svg width="48" height="48" xmlns="http://www.w3.org/2000/svg" viewBox="0 0 128 128"><path d="M54.32 27.164L33.304 16.559 10.226 28.071l21.594 10.84zM63.961 32.031L86 43.16 63.137 54.637 41.512 43.782zM93.398 16.715l22.645 11.355-20.254 10.168-22.082-11.141zM83.652 11.824L63.265 1.601 43.101 11.667l21.008 10.59zM67.715 99.605v27.816l24.695-12.324-.023-27.828zM92.375 77.555l-.027-27.535-24.633 12.246v27.547zM122.02 72.398v27.926l-21.066 10.508-.016-27.797zM122.02 62.633V35.266l-21.105 10.492.016 27.59z" color="#000" fill="#4cabcf" style="-inkscape-stroke:none"/><path d="M58.996 62.266l-16.629-8.367v36.14S22.019 46.756 20.14 42.865c-.242-.504-1.242-1.051-1.496-1.188-3.668-1.914-14.355-7.324-14.355-7.324v63.871l14.785 7.926V72.75s20.129 38.676 20.336 39.102c.21.422 2.219 4.492 4.383 5.926 2.87 1.906 15.195 9.316 15.195 9.316z" color="#000" fill="#4c75cf" style="-inkscape-stroke:none"/></svg>
</g><g id="j"><svg width="48" height="48" viewBox="0 0 128 128" xmlns="http://www.w3.org/2000/svg"><path d="M64 0A64 64 0 000 64a64 64 0 0064 63.999 64 64 0 0063.999-64A64 64 0 0063.999 0zm9.906 22.22c7.07-.014 14.576 2.427 15.833 10.438.713 4.546 1.199 12.098-9.96 17.833 8.64 2.335 11.528 7.893 11.628 13.364.236 12.843-12.232 20.697-23.455 19.443l.084-6.481c9.937 1.14 14.762-5.337 14.977-11.421.22-6.235-5.241-10.537-14.977-10.346l-.15-6.096c12.188-.904 15.622-9.343 14.104-14.03-2.077-6.419-8.71-7.604-14.573-5.347l-1.002 7.15-4.664-.15.4-11.877c2.286-1.311 6.919-2.47 11.755-2.48zM60.5 49.215V97.29c2.559-.184 6.013.705 9.142 1.205v5.268l-27.746-.017v-5.346c2.99-.41 5.75-1.094 9.02-1.169V55.972c-3.681-.063-7.145-.87-8.887-1.47v-5.13l18.471-.155z"/></svg>
</g><g id="k"><svg width="48" height="48" xmlns="http://www.w3.org/2000/svg" viewBox="0 0 128 128"><path fill="#FFD845" d="M49.33 62h29.159C86.606 62 93 55.132 93 46.981V19.183c0-7.912-6.632-13.856-14.555-15.176-5.014-.835-10.195-1.215-15.187-1.191-4.99.023-9.612.448-13.805 1.191C37.098 6.188 35 10.758 35 19.183V30h29v4H23.776c-8.484 0-15.914 5.108-18.237 14.811-2.681 11.12-2.8 17.919 0 29.53C7.614 86.983 12.569 93 21.054 93H31V79.952C31 70.315 39.428 62 49.33 62zm-1.838-39.11c-3.026 0-5.478-2.479-5.478-5.545 0-3.079 2.451-5.581 5.478-5.581 3.015 0 5.479 2.502 5.479 5.581-.001 3.066-2.465 5.545-5.479 5.545zm74.789 25.921C120.183 40.363 116.178 34 107.682 34H97v12.981C97 57.031 88.206 65 78.489 65H49.33C41.342 65 35 72.326 35 80.326v27.8c0 7.91 6.745 12.564 14.462 14.834 9.242 2.717 17.994 3.208 29.051 0C85.862 120.831 93 116.549 93 108.126V97H64v-4h43.682c8.484 0 11.647-5.776 14.599-14.66 3.047-9.145 2.916-17.799 0-29.529zm-41.955 55.606c3.027 0 5.479 2.479 5.479 5.547 0 3.076-2.451 5.579-5.479 5.579-3.015 0-5.478-2.502-5.478-5.579 0-3.068 2.463-5.547 5.478-5.547z"/></svg></g><g id="l"><svg width="48" height="48" xmlns="http://www.w3.org/2000/svg" viewBox="0 0 128 128"><g fill="#61DAFB"><circle cx="64" cy="64" r="11.4"/><path d="M107.3 45.2c-2.2-.8-4.5-1.6-6.9-2.3.6-2.4 1.1-4.8 1.5-7.1 2.1-13.2-.2-22.5-6.6-26.1-1.9-1.1-4-1.6-6.4-1.6-7 0-15.9 5.2-24.9 13.9-9-8.7-17.9-13.9-24.9-13.9-2.4 0-4.5.5-6.4 1.6-6.4 3.7-8.7 13-6.6 26.1.4 2.3.9 4.7 1.5 7.1-2.4.7-4.7 1.4-6.9 2.3C8.2 50 1.4 56.6 1.4 64s6.9 14 19.3 18.8c2.2.8 4.5 1.6 6.9 2.3-.6 2.4-1.1 4.8-1.5 7.1-2.1 13.2.2 22.5 6.6 26.1 1.9 1.1 4 1.6 6.4 1.6 7.1 0 16-5.2 24.9-13.9 9 8.7 17.9 13.9 24.9 13.9 2.4 0 4.5-.5 6.4-1.6 6.4-3.7 8.7-13 6.6-26.1-.4-2.3-.9-4.7-1.5-7.1 2.4-.7 4.7-1.4 6.9-2.3 12.5-4.8 19.3-11.4 19.3-18.8s-6.8-14-19.3-18.8zM92.5 14.7c4.1 2.4 5.5 9.8 3.8 20.3-.3 2.1-.8 4.3-1.4 6.6-5.2-1.2-10.7-2-16.5-2.5-3.4-4.8-6.9-9.1-10.4-13 7.4-7.3 14.9-12.3 21-12.3 1.3 0 2.5.3 3.5.9zM81.3 74c-1.8 3.2-3.9 6.4-6.1 9.6-3.7.3-7.4.4-11.2.4-3.9 0-7.6-.1-11.2-.4-2.2-3.2-4.2-6.4-6-9.6-1.9-3.3-3.7-6.7-5.3-10 1.6-3.3 3.4-6.7 5.3-10 1.8-3.2 3.9-6.4 6.1-9.6 3.7-.3 7.4-.4 11.2-.4 3.9 0 7.6.1 11.2.4 2.2 3.2 4.2 6.4 6 9.6 1.9 3.3 3.7 6.7 5.3 10-1.7 3.3-3.4 6.6-5.3 10zm8.3-3.3c1.5 3.5 2.7 6.9 3.8 10.3-3.4.8-7 1.4-10.8 1.9 1.2-1.9 2.5-3.9 3.6-6 1.2-2.1 2.3-4.2 3.4-6.2zM64 97.8c-2.4-2.6-4.7-5.4-6.9-8.3 2.3.1 4.6.2 6.9.2 2.3 0 4.6-.1 6.9-.2-2.2 2.9-4.5 5.7-6.9 8.3zm-18.6-15c-3.8-.5-7.4-1.1-10.8-1.9 1.1-3.3 2.3-6.8 3.8-10.3 1.1 2 2.2 4.1 3.4 6.1 1.2 2.2 2.4 4.1 3.6 6.1zm-7-25.5c-1.5-3.5-2.7-6.9-3.8-10.3 3.4-.8 7-1.4 10.8-1.9-1.2 1.9-2.5 3.9-3.6 6-1.2 2.1-2.3 4.2-3.4 6.2zM64 30.2c2.4 2.6 4.7 5.4 6.9 8.3-2.3-.1-4.6-.2-6.9-.2-2.3 0-4.6.1-6.9.2 2.2-2.9 4.5-5.7 6.9-8.3zm22.2 21l-3.6-6c3.8.5 7.4 1.1 10.8 1.9-1.1 3.3-2.3 6.8-3.8 10.3-1.1-2.1-2.2-4.2-3.4-6.2zM31.7 35c-1.7-10.5-.3-17.9 3.8-20.3 1-.6 2.2-.9 3.5-.9 6 0 13.5 4.9 21 12.3-3.5 3.8-7 8.2-10.4 13-5.8.5-11.3 1.4-16.5 2.5-.6-2.3-1-4.5-1.4-6.6zM7 64c0-4.7 5.7-9.7 15.7-13.4 2-.8 4.2-1.5 6.4-2.1 1.6 5 3.6 10.3 6 15.6-2.4 5.3-4.5 10.5-6 15.5C15.3 75.6 7 69.6 7 64zm28.5 49.3c-4.1-2.4-5.5-9.8-3.8-20.3.3-2.1.8-4.3 1.4-6.6 5.2 1.2 10.7 2 16.5 2.5 3.4 4.8 6.9 9.1 10.4 13-7.4 7.3-14.9 12.3-21 12.3-1.3 0-2.5-.3-3.5-.9zM96.3 93c1.7 10.5.3 17.9-3.8 20.3-1 .6-2.2.9-3.5.9-6 0-13.5-4.9-21-12.3 3.5-3.8 7-8.2 10.4-13 5.8-.5 11.3-1.4 16.5-2.5.6 2.3 1 4.5 1.4 6.6zm9-15.6c-2 .8-4.2 1.5-6.4 2.1-1.6-5-3.6-10.3-6-15.6 2.4-5.3 4.5-10.5 6-15.5 13.8 4 22.1 10 22.1 15.6 0 4.7-5.8 9.7-15.7 13.4z"/></g></svg></g><g id="m"><svg width="48" height="48" viewBox="0 0 1200 800" version="1.1"
	xmlns="http://www.w3.org/2000/svg"
	xmlns:xlink="http://www.w3.org/1999/xlink" xml:space="preserve"
	xmlns:serif="http://www.serif.com/" style="fill-rule:evenodd;clip-rule:evenodd;stroke-linejoin:round;stroke-miterlimit:1.41421;">
	<g>
		<g transform="matrix(1,0,0,1,1009.4,506.362)">
			<path d="M0,-7.203L-12.072,-32.209C-12.009,-33.156 -11.961,-34.107 -11.961,-35.062C-11.961,-63.408 -41.439,-89.533 -91.03,-110.451L-91.03,-93.058C-95.866,-94.977 -100.901,-96.845 -106.147,-98.651L-106.147,-106.759C-177.021,-132.319 -282.53,-148.537 -400.388,-148.537C-503.361,-148.537 -596.917,-136.157 -666.179,-115.983L-666.179,-87.737L-666.181,-87.737L-666.181,-121.925C-737.141,-99.375 -781.135,-68.048 -781.135,-33.41C-781.135,-27.95 -780.034,-22.572 -777.918,-17.297L-785.146,-4.43C-785.146,-4.43 -790.938,3.082 -780.74,18.932C-771.746,32.909 -726.692,87.617 -702.913,116.267C-692.699,130.954 -685.772,140.001 -685.167,139.126C-684.212,137.74 -691.518,110.165 -711.802,78.703C-721.268,61.808 -732.57,39.42 -739.356,22.884C-720.414,34.874 -609.126,90.913 -382.124,90.685C-150.13,90.453 -47.009,17.834 -35.691,7.948C-39.646,23.837 -53.159,55.981 -63.936,78.586C-81.642,110.917 -88.056,139.064 -87.232,140.456C-86.708,141.334 -80.667,132.015 -71.756,116.913C-51.025,87.37 -11.739,30.974 -3.889,16.608C5.007,0.323 0,-7.203 0,-7.203" style="fill:rgb(165,43,0);fill-rule:nonzero;"/>
		</g>
		<g transform="matrix(1,0,0,1,1079.49,294.885)">
			<path d="M0,204.135L-79.343,145.689C-80.088,143.089 -80.833,140.488 -81.603,137.908L-55.541,100.154C-52.881,96.314 -52.345,91.322 -54.072,86.943C-55.803,82.585 -59.587,79.461 -64.062,78.696L-108.128,71.217C-109.837,67.732 -111.626,64.301 -113.422,60.898L-94.907,18.51C-93.004,14.193 -93.402,9.175 -95.929,5.256C-98.446,1.319 -102.715,-0.981 -107.267,-0.802L-151.991,0.823C-154.306,-2.193 -156.658,-5.18 -159.058,-8.114L-148.78,-53.546C-147.738,-58.158 -149.054,-62.989 -152.267,-66.34C-155.462,-69.679 -160.105,-71.062 -164.52,-69.979L-208.082,-59.27C-210.902,-61.763 -213.77,-64.223 -216.67,-66.635L-215.103,-113.276C-214.935,-117.997 -217.136,-122.484 -220.915,-125.105C-224.692,-127.741 -229.485,-128.137 -233.616,-126.179L-274.254,-106.858C-277.527,-108.736 -280.819,-110.595 -284.146,-112.395L-291.327,-158.356C-292.056,-163.012 -295.051,-166.968 -299.246,-168.774C-303.431,-170.591 -308.222,-170.002 -311.894,-167.238L-348.126,-140.053C-351.695,-141.238 -355.279,-142.373 -358.905,-143.46L-374.522,-187.045C-376.11,-191.488 -379.772,-194.751 -384.238,-195.669C-388.688,-196.578 -393.266,-195.037 -396.352,-191.589L-426.851,-157.47C-430.536,-157.893 -434.228,-158.28 -437.927,-158.601L-461.476,-198.277C-463.86,-202.295 -468.073,-204.741 -472.615,-204.741C-477.144,-204.741 -481.365,-202.295 -483.733,-198.277L-507.288,-158.601C-510.989,-158.28 -514.696,-157.893 -518.376,-157.47L-548.875,-191.589C-551.965,-195.037 -556.559,-196.578 -560.997,-195.669C-565.457,-194.739 -569.125,-191.488 -570.704,-187.045L-586.333,-143.46C-589.954,-142.373 -593.538,-141.23 -597.113,-140.053L-633.333,-167.238C-637.016,-170.012 -641.811,-170.599 -646.001,-168.774C-650.182,-166.968 -653.189,-163.012 -653.914,-158.356L-661.1,-112.395C-664.422,-110.595 -667.714,-108.746 -670.995,-106.858L-711.629,-126.179C-715.756,-128.145 -720.574,-127.741 -724.333,-125.105C-728.106,-122.484 -730.313,-117.997 -730.143,-113.276L-728.581,-66.635C-731.475,-64.223 -734.337,-61.763 -737.172,-59.27L-780.726,-69.979C-785.149,-71.053 -789.788,-69.679 -792.991,-66.34C-796.212,-62.989 -797.517,-58.158 -796.482,-53.546L-786.225,-8.114C-788.603,-5.169 -790.958,-2.193 -793.267,0.823L-837.991,-0.802C-842.504,-0.937 -846.812,1.319 -849.334,5.256C-851.861,9.175 -852.244,14.193 -850.363,18.51L-831.835,60.898C-833.634,64.301 -835.421,67.732 -837.144,71.217L-881.207,78.696C-885.686,79.45 -889.459,82.572 -891.201,86.943C-892.929,91.322 -892.368,96.314 -889.727,100.154L-863.661,137.908C-863.862,138.575 -864.048,139.247 -864.248,139.916L-937.944,218.201C-937.944,218.201 -949.24,227.052 -932.797,247.855C-918.297,266.206 -843.846,338.951 -804.526,377.06C-787.92,396.408 -776.542,408.389 -775.354,407.353C-773.478,405.708 -783.326,370.506 -816.036,329.204C-841.252,292.148 -873.977,235.155 -866.303,228.586C-866.303,228.586 -857.574,217.505 -840.061,209.529C-839.42,210.041 -840.723,209.022 -840.061,209.529C-840.061,209.529 -470.466,380.02 -127.632,212.413C-88.468,205.388 -64.759,226.368 -64.759,226.368C-56.583,231.108 -77.755,289.712 -95.166,328.505C-118.845,372.555 -122.317,406.927 -120.31,408.119C-119.042,408.876 -110.427,395.766 -98.138,374.902C-67.814,332.649 -10.492,252.1 0,232.534C11.895,210.352 0,204.135 0,204.135" style="fill:rgb(247,76,0);fill-rule:nonzero;"/>
		</g>
		<g transform="matrix(1,0,0,1,917.896,244.679)">
			<path d="M0,232.466C0,232.466 53.179,230 123.032,159.004L132.93,137.025C132.93,137.025 24.513,29.177 193.048,-45.266C193.048,-45.266 178.293,-21.154 182.622,72.006C182.622,72.006 233.437,54.357 248.336,-27.934C248.336,-27.934 322.456,69.79 167.834,161.443C167.834,161.443 95.294,277.732 -6.971,266.593L0,232.466Z" style="fill:rgb(247,76,0);fill-rule:nonzero;"/>
		</g>
		<g transform="matrix(1,0,0,1,676.997,488.361)">
			<path d="M0,-78.192C0,-78.192 36.935,-118.635 73.871,-78.192C73.871,-78.192 102.893,-24.265 73.871,2.695C73.871,2.695 26.384,40.443 0,2.695C0,2.695 -31.658,-26.964 0,-78.192" style="fill-rule:nonzero;"/>
		</g>
		<g transform="matrix(1,0,0,1,719.761,425.169)">
			<path d="M0,0.004C0,15.75 -9.282,28.518 -20.732,28.518C-32.18,28.518 -41.462,15.75 -41.462,0.004C-41.462,-15.746 -32.18,-28.514 -20.732,-28.514C-9.282,-28.514 0,-15.746 0,0.004" style="fill:white;fill-rule:nonzero;"/>
		</g>
		<g transform="matrix(1,0,0,1,512.148,482.736)">
			<path d="M0,-83.609C0,-83.609 63.355,-111.661 80.648,-49.047C80.648,-49.047 98.762,23.933 28.618,28.052C28.618,28.052 -60.826,10.824 0,-83.609" style="fill-rule:nonzero;"/>
		</g>
		<g transform="matrix(1,0,0,1,543.968,426.204)">
			<path d="M0,0.002C0,16.241 -9.572,29.411 -21.381,29.411C-33.185,29.411 -42.76,16.241 -42.76,0.002C-42.76,-16.242 -33.185,-29.409 -21.381,-29.409C-9.572,-29.409 0,-16.242 0,0.002" style="fill:white;fill-rule:nonzero;"/>
		</g>
		<g transform="matrix(1,0,0,1,593.317,576.574)">
			<path d="M0,-40.271L80.796,-46.755C80.796,-46.755 78.058,-33.749 67.517,-23.986C67.517,-23.986 39.727,6.484 7.844,-26.519C7.844,-26.519 2.627,-32.148 0,-40.271" style="fill-rule:nonzero;"/>
		</g>
		<g transform="matrix(1,0,0,1,269.796,270.778)">
			<path d="M0,190.741C-0.667,190.741 -1.321,190.79 -1.973,190.842C-28.207,184.871 -101.946,165.657 -121.437,134.479C-121.437,134.479 -22.21,21.607 -177.297,-50.54L-159.24,74.338C-159.24,74.338 -207.049,42.389 -217.366,-27.008C-217.366,-27.008 -333.789,57.486 -165.982,138.466C-165.982,138.466 -150.762,195.653 -4.633,241.281L-4.526,240.846C-3.055,241.118 -1.549,241.281 0,241.281C13.808,241.281 25.003,229.969 25.003,216.01C25.003,202.054 13.808,190.741 0,190.741" style="fill:rgb(247,76,0);fill-rule:nonzero;"/>
		</g>
	</g>
</svg></g><g id="n"><svg width="48" height="48" xmlns="http://www.w3.org/2000/svg" viewBox="0 0 128 128"><path fill="#007acc" d="M2 63.91v62.5h125v-125H2zm100.73-5a15.56 15.56 0 017.82 4.5 20.58 20.58 0 013 4c0 .16-5.4 3.81-8.69 5.85-.12.08-.6-.44-1.13-1.23a7.09 7.09 0 00-5.87-3.53c-3.79-.26-6.23 1.73-6.21 5a4.58 4.58 0 00.54 2.34c.83 1.73 2.38 2.76 7.24 4.86 8.95 3.85 12.78 6.39 15.16 10 2.66 4 3.25 10.46 1.45 15.24-2 5.2-6.9 8.73-13.83 9.9a38.32 38.32 0 01-9.52-.1A23 23 0 0180 109.19c-1.15-1.27-3.39-4.58-3.25-4.82a9.34 9.34 0 011.15-.73l4.6-2.64 3.59-2.08.75 1.11a16.78 16.78 0 004.74 4.54c4 2.1 9.46 1.81 12.16-.62a5.43 5.43 0 00.69-6.92c-1-1.39-3-2.56-8.59-5-6.45-2.78-9.23-4.5-11.77-7.24a16.48 16.48 0 01-3.43-6.25 25 25 0 01-.22-8c1.33-6.23 6-10.58 12.82-11.87a31.66 31.66 0 019.49.26zm-29.34 5.24v5.12H57.16v46.23H45.65V69.26H29.38v-5a49.19 49.19 0 01.14-5.16c.06-.08 10-.12 22-.1h21.81z"/></svg></g><g id="o"><svg width="48" height="48" xmlns="http://www.w3.org/2000/svg" viewBox="0 0 128 128"><path fill="#DD4814" d="M64 3.246C30.445 3.246 3.245 30.446 3.245 64c0 33.552 27.2 60.754 60.755 60.754 33.554 0 60.755-27.202 60.755-60.754 0-33.554-27.2-60.754-60.755-60.754zm13.631 20.922a8.108 8.108 0 1114.046 8.108A8.105 8.105 0 0180.6 35.243a8.11 8.11 0 01-2.969-11.075zM64 28.763c3.262 0 6.417.453 9.414 1.281a11.357 11.357 0 005.548 8.042 11.378 11.378 0 009.725.789c5.998 5.898 9.901 13.919 10.47 22.854l-11.558.17C86.532 49.796 76.377 40.306 64 40.306a23.6 23.6 0 00-9.98 2.203L48.383 32.41A35.116 35.116 0 0164 28.763zM22.689 72.112A8.112 8.112 0 0114.576 64a8.111 8.111 0 018.113-8.113 8.113 8.113 0 010 16.225zm7.191.722A11.377 11.377 0 0034.08 64c0-3.565-1.639-6.747-4.2-8.836 2.194-8.489 7.475-15.738 14.571-20.483l5.931 9.934C44.29 48.902 40.308 55.984 40.308 64s3.981 15.098 10.074 19.383l-5.931 9.937c-7.099-4.744-12.38-11.995-14.571-20.486zm58.831 33.964a8.105 8.105 0 01-11.077-2.969c-2.241-3.877-.911-8.835 2.969-11.076 3.877-2.239 8.838-.908 11.077 2.969a8.106 8.106 0 01-2.969 11.076zm-.024-17.673a11.357 11.357 0 00-9.725.788 11.36 11.36 0 00-5.547 8.042A35.232 35.232 0 0164 99.239a35.097 35.097 0 01-15.616-3.649l5.636-10.1A23.6 23.6 0 0064 87.694c12.378 0 22.532-9.488 23.596-21.592l11.561.169c-.569 8.935-4.472 16.956-10.47 22.854z"/></svg></g><g id="p"><svg width="48" height="48" xmlns="http://www.w3.org/2000/svg" viewBox="0 0 128 128"><path d="M3.656 45.043s-3.027-2.191.61-5.113l8.468-7.594s2.426-2.559 4.989-.328l78.175 59.328v28.45s-.039 4.468-5.757 3.976zm0 0" fill="#2489ca"/><path d="M23.809 63.379L3.656 81.742s-2.07 1.543 0 4.305l9.356 8.527s2.222 2.395 5.508-.328l21.359-16.238zm0 0" fill="#1070b3"/><path d="M59.184 63.531l36.953-28.285-.239-28.297S94.32.773 89.055 3.99L39.879 48.851zm0 0" fill="#0877b9"/><path d="M90.14 123.797c2.145 2.203 4.747 1.48 4.747 1.48l28.797-14.222c3.687-2.52 3.171-5.645 3.171-5.645V20.465c0-3.735-3.812-5.024-3.812-5.024L98.082 3.38c-5.453-3.379-9.027.61-9.027.61s4.593-3.317 6.843 2.96v112.317c0 .773-.164 1.53-.492 2.214-.656 1.332-2.086 2.57-5.504 2.051zm0 0" fill="#3c99d4"/></svg></g><style>@keyframes scroll{0{transform:translateX(0)}to{transform:translateX(850px)}}#_>g{position:absolute;top:0;left:0;transform:translateX(-48px);animation:scroll 15s linear infinite}#_>#a{animation-delay:-882ms}#_>#b{animation-delay:-1764ms}#_>#c{animation-delay:-2646ms}#_>#d{animation-delay:-3528ms}#_>#e{animation-delay:-4410ms}#_>#f{animation-delay:-5292ms}#_>#g{animation-delay:-6174ms}#_>#h{animation-delay:-7056ms}#_>#i{animation-delay:-7938ms}#_>#j{animation-delay:-8820ms}#_>#k{animation-delay:-9702ms}#_>#l{animation-delay:-10584ms}#_>#m{animation-delay:-11466ms}#_>#n{animation-delay:-12348ms}#_>#o{animation-delay:-13230ms}#_>#p{animation-delay:-14112ms}</style></svg>