<svg xmlns="http://www.w3.org/2000/svg" xmlns:xlink="http://www.w3.org/1999/xlink"><defs><path d="m127.65 452.85 384.18 3.12-5.64-130.01-371.35-54.09-7.19 180.98z" id="a"/><path d="M636.5 75.5C636.5 36 604.5 4 565 4s-72 31.5-72 71.5 32 71.5 72 71.5 71.5-32 71.5-71.5" id="b"/><path d="M75 320.5c0 135.5 109.5 245 245 245s245-109.5 245-245-110-245-245-245S75 185 75 320.5zm78.5 122V282H174v142.5h79.5v18h-100zm195 0v-16c-11 15-21.5 21-38.5 21-22.5 0-37-12.5-37-31.5v-89h18.5v81.5c0 14 9.5 22.5 24 22.5 19 0 31.5-15.5 31.5-39v-65h18v115.5h-16.5zm73-295.5c39.5 0 71.5 32 71.5 71.5S461 290 421.5 290 350 258 350 218.5s32-71.5 71.5-71.5zm65 300.5c-12 0-17.5-5.5-19-17-13 12-24.5 17-39 17-23.5 0-38-13-38-34 0-15 7-25.5 20.5-31 7-3 11-3.5 37-7 14.5-2 19-5 19-13v-5c0-11-9.5-17-26-17-17 0-25.5 6.5-27 20.5h-18.5c.5-11.5 2.5-18 8-24 7.5-8.5 21.5-13.5 38.5-13.5 28.5 0 43.5 11 43.5 31.5v68c0 5.5 3.5 9 10 9 1 0 2 0 4-.5-.03.93-.2 5.6-.5 14-6 1.33-10.17 2-12.5 2z" id="c"/><path d="M432 431.5c11 0 20-3.5 27.5-10.5 5.5-5 7.5-9 7.5-15v-20.5c-6 3-10 3.5-29.5 6.5-19.5 2.5-28 9-28 21 0 11.5 8.5 18.5 22.5 18.5z" id="d"/><path d="M331 632.5c9-.5 18-1 27-2l1 7.5c-9 1-18.5 1.5-27.5 2l-.5-7.5zm-55.5 5 1-7.5c9 1 18 2 27 2.5v7.5c-12.33-1-21.67-1.83-28-2.5zM385 626c9-2 17.5-4 26.5-7l2 7c-8.5 3-17.5 5.5-27 7l-1.5-7zm-164-1.5 2.5-7c8.5 3 17.5 5 26.5 7.5-.13.47-.8 2.8-2 7-12-3-21-5.5-27-7.5zM437 610c8.5-3.5 16.5-7 25-11.5l3.5 6.5c-8.5 4.5-17 8.5-25.5 12l-3-7zm-267-7 3.5-6.5c8 4.5 16.5 8 24.5 12-.2.43-1.2 2.6-3 6.5-11.33-5-19.67-9-25-12zm316-17.5c7.5-5 15-10 22.5-15.5l4.5 6c-7.5 5.5-15.5 10.5-23 15.5l-4-6zm-362.5-13 4.5-6c7 5.5 14.5 11 22 16-.27.4-1.6 2.4-4 6-10.33-7-17.83-12.33-22.5-16zm406-20c6.5-6 13.5-12.5 19.5-19l5.5 5c-6.5 6.5-13.5 13-20 19.5l-5-5.5zm-447-18 5.5-5c6 6.5 12.5 13.5 19 19.5-.33.37-2 2.2-5 5.5-9-8.67-15.5-15.33-19.5-20zm484-22c5.5-7 11-14.5 16-22l6 4c-5 7.5-10.5 15.5-16 22.5l-6-4.5zM48.5 490l6-4c5 7.5 10 15 15.5 22.5-.37.3-2.2 1.8-5.5 4.5-7.33-10-12.67-17.67-16-23zm548-23c4.5-8 8-16.5 12-24.5.43.17 2.6 1 6.5 2.5l-12 25.5c-3.9-2.1-6.07-3.27-6.5-3.5zm-573-27 6.5-2.5c3.5 8.5 7 16.5 11.5 25-.43.2-2.6 1.2-6.5 3-5.33-11.33-9.17-19.83-11.5-25.5zm594-23.5c3-8.5 5-17.5 7.5-26.5l7 1.5c-2 9.5-4.5 18.5-7.5 27.5l-7-2.5zM7 387l7-1.5c2 9 4 17.5 7 26.5-.47.13-2.8.8-7 2-3.33-12-5.67-21-7-27zm622.5-23.5c1-9 2-18 2.5-27l7.5.5c0 9-1 18.5-2.5 27.5l-7.5-1zM0 331.5l7.5-.5c.5 9 1 18 2 27l-7 1.5c-1.33-12.33-2.17-21.67-2.5-28zM630.5 282l7.5-1c1 9 2 18.5 2 28h-7.5c-.67-12-1.33-21-2-27zM0 303.5c.5-9.5 1.5-18.5 2.5-28L10 277c-1 9-2 18-2.5 27l-7.5-.5zm619-75 7-2c2.5 9 5 18 7 27l-7 1.5c-2.67-12-5-20.83-7-26.5zm-611 20c2-9 4.5-18 7.5-27l7 2.5c-3 8.5-5.5 17-7.5 26l-7-1.5zM598.5 178l6.5-3.5c4 8.5 8 17 11.5 25.5-.43.2-2.6 1.2-6.5 3-4.67-11.33-8.5-19.67-11.5-25zM25 195.5c3.5-8.5 7.5-17 12-25l6.5 3.5c-4 7.5-8 16-11.5 24l-7-2.5zM51.5 146c5-8 10.5-15.5 16-22.5l6 4.5c-6 7-11 14.5-16 22l-6-4zm34-44c6.5-7 13-13.5 20-19.5l5 5.5c-7 6-13.5 12.5-19.5 19l-5.5-5zM127 64.5c7.5-5.5 15-11 23-16l4 6c-8 5.5-15.5 10.5-22.5 16l-4.5-6zM442 32l2.5-7c8.5 3.5 17 7.5 25 12-.2.43-1.2 2.6-3 6.5-11-5.33-19.17-9.17-24.5-11.5zm-268 3c8.5-4 17-8 25.5-11.5l3 6.5c-8.5 3.5-17 7.5-25 11.5L174 35zm215.5-19.5 1.5-7c9 2 18 4.5 27 7.5-.13.43-.8 2.6-2 6.5-11.67-3.33-20.5-5.67-26.5-7zM226 14c9-2.5 18-5 27-7l1.5 7c-9 2-18 4.5-26.5 7l-2-7zm110-6.5.5-7.5c9.5.5 18.5 1.5 28 2.5L363 10c-12-1.33-21-2.17-27-2.5zM280.5 2c9-1 18.5-2 28-2l.5 7.5c-9.5 0-18.5 1-27.5 2l-1-7.5z" id="e"/></defs><use xlink:href="#a" fill="#fff"/><use xlink:href="#b" fill="navy"/><use xlink:href="#b" fill-opacity="0" stroke="#000" stroke-opacity="0"/><use xlink:href="#c" fill="navy"/><use xlink:href="#c" fill-opacity="0" stroke="#000" stroke-opacity="0"/><use xlink:href="#d" fill="navy"/><use xlink:href="#d" fill-opacity="0" stroke="#000" stroke-opacity="0"/><use xlink:href="#e" fill="gray"/><use xlink:href="#e" fill-opacity="0" stroke="#000" stroke-opacity="0"/></svg>