<svg xmlns="http://www.w3.org/2000/svg" xmlns:xlink="http://www.w3.org/1999/xlink" viewBox="0 0 640 640"><defs><path d="M617.42 320c0 168.89-133.27 306-297.42 306S22.58 488.89 22.58 320 155.85 14 320 14s297.42 137.11 297.42 306z" id="a"/><path d="M282.51 3.15c-61.18 6.4-121.43 32.32-170.56 73.45-9.07 7.53-29.73 28.19-37.26 37.25-40.67 48.6-64.45 103.13-73.23 167.66-1.95 14.33-1.95 62.67 0 77 8.78 64.52 32.56 119.06 73.23 167.65 7.53 9.08 28.19 29.72 37.26 37.25 48.59 40.68 103.12 64.45 167.65 73.23 14.33 1.96 62.68 1.96 77 0 64.53-8.77 119.06-32.55 167.65-73.23 9.08-7.53 29.73-28.18 37.25-37.25 40.68-48.59 64.46-103.12 73.22-167.65 1.97-14.33 1.97-62.68 0-77-8.76-64.53-32.54-119.06-73.22-167.66-7.52-9.06-28.18-29.72-37.25-37.25C475.83 36.08 420.74 12 357.06 3.47c-6.89-.96-16.89-1.34-35.44-1.49-14.15-.17-27.08-.07-28.55.07-1.49.15-6.25.71-10.56 1.1zm14.47 32.7c0 9.15.61 29.02 1.49 47.89.47 9.21 1 22.44 1.25 29.33.86 24.42 3.45 88.48 3.83 94.21.03.38.16 2.27.4 5.69-2.12-.23-3.29-.36-3.52-.39-1.96-.15-3.77-.61-4.08-.85-.22-.32-.79-5.72-1.11-12.06-1.38-27.84-6-135.9-6.47-151.69-.03-1.16-.2-6.95-.49-17.38 1.32-.17 2.06-.27 2.2-.29 1.17-.18 3.13-.39 4.38-.49.14 0 .85-.03 2.12-.07v6.1zm75.41 50.63c.32 28.87.71 54.75.95 57.57.22 2.9.15 5.4-.25 5.56-.31.22-2.27.22-4.22 0-.24-.02-1.44-.12-3.59-.31-.33-13.67-.5-21.26-.54-22.78-.26-10.35-.55-20.7-.88-31.04-.62-13.87-1.17-60.87-.68-62.04.29-.88 1.17-.96 4.44-.4 2.28.47 4.16.86 4.23.94.07.07.32 23.71.54 52.5zM199.57 160.4c1.5 19.18 2.96 36.71 3.21 38.89.39 3.98.31 4.15-2.2 5.72-1.39.85-2.81 1.56-3.13 1.56-.22 0-.68-2.03-.93-4.55-1.1-10.17-5.33-59.3-8.28-94.81-1.74-20.9-3.31-39.6-3.53-41.63-.38-3.44-.31-3.76 1.72-4.84 2.49-1.35 3.91-1.56 4.44-.56.49.7 4.16 43.82 8.7 100.22zm209.6-78.86c.79 7.82.54 45.22-.31 45.22-2.28 0-6.97-2.66-7.36-4.15-.25-.94-.46-12.03-.46-24.64 0-25.42-.32-23.93 5.22-22.05 2.21.78 2.43 1.17 2.91 5.62zm-146.24 24.1c.64 12.27 1.35 27.84 1.67 34.59.53 13.61.68 13.13-4.55 13.45-2.59.06-2.59.06-2.74-3.85-.15-2.17-.54-8.99-1.02-15.25-.4-6.25-1.32-19.79-1.96-30.11-.43-7.6-.97-15.2-1.64-22.78-.47-3.91-.39-4.06 1.71-4.84 1.27-.47 3.44-.85 4.86-.85 2.5-.08 2.5-.08 2.5 3.59 0 2.1.56 13.76 1.17 26.05zm218.52-14.25c.34 6.29.53 9.79.57 10.49.22 5.72.38 18.08.22 27.4-.02 1.14-.09 6.82-.22 17.04l-3.3-1.64-3.28-1.57c-.15-15.59-.23-24.25-.24-25.98-.15-14.3-.08-26.42.07-26.99.31-1.17.31-1.17 3.52.18.35.14 1.24.5 2.66 1.07zm-143.87 66.83c.01.77.03 4.63.08 11.59-2.2-.34-3.42-.53-3.67-.57-2.13-.25-3.84-.46-3.91-.53-.25-.17-2.59-58.14-2.59-63.77v-5.8c2.39.28 3.71.43 3.98.46 2.28.32 4.23.71 4.47.96.47.47 1.57 38.4 1.64 57.66zm179.88 60.62c.22 108.52.22 111.34-1.18 111.34-1-.06-1.96-.42-2.75-1.03-1.18-.85-1.33-10.32-1.72-103.03-.31-56.17-.71-107.19-.93-113.36-.03-.75-.19-4.51-.49-11.27 1.37.98 2.12 1.52 2.28 1.63 1.34.96 2.84 2.28 3.44 2.99.96 1.1 1.1 18.23 1.35 112.73zm-70.67-86.82c.4 17.28.47 123.29.08 123.61-.15.14-1.57-.25-3.13-.86-.19-.08-1.13-.47-2.82-1.18V120.5c1.33.28 2.06.44 2.21.47 1.17.31 2.42.78 2.81 1.17.39.32.78 4.77.85 9.88zm-215.93 5.3c.25 3.84.78 12.61 1.25 19.41.95 13.77.78 14.64-3.67 14.64-2.34 0-2.66-.25-2.98-2.59-.78-4.62-3.52-43.12-3.13-43.73.39-.57 4.48-1.95 6.34-2.13.48-.07 1.09 1.56 1.34 3.6.22 2.13.61 6.89.85 10.8zm-126.42 47.74c1.32 12.91 2.42 23.86 2.42 24.32 0 .95-6.03 3.91-6.65 3.3-.39-.39-8.21-69.64-8.21-72.77 0-1.88 6.01-9.78 6.8-8.92.24.15 1.02 7.11 1.81 15.5.85 8.28 2.56 25.66 3.83 38.57zm305.2-29.04c.04 10.15.07 15.79.07 16.92.08 9.21.25 19.55.25 22.9.15 7.04-.71 8.21-4.94 6.74-.16-.05-.97-.35-2.42-.87v-6.73c0-3.73-.25-14.62-.56-24.25-.03-1.16-.19-6.95-.47-17.37h1.82c.92 0 2.73.63 3.98 1.34.3.18 1.06.61 2.27 1.32zM140.1 241.37c.18 1.93 1.07 11.59 2.67 28.98l-3.05 3.02-2.96 3.06c-.34-3.72-.53-5.78-.57-6.19-.31-3.44-1.87-19.38-3.51-35.51a9126.02 9126.02 0 0 1-5.16-51.94c-.15-1.51-.88-9.02-2.2-22.54 1.83-1.69 2.85-2.63 3.05-2.81 2.74-2.59 3.06-2.67 3.6-1.26.31.79 1.63 13.77 2.98 28.88 1.42 15.01 3.66 40.36 5.15 56.31zm-53.57 44.22c3.91 34.66 7.57 68.05 8.28 74.31.64 6.26 1.71 15.74 2.35 21.15 1.1 9.13 1.1 9.77-.14 10.7-1.89 1.42-2.67 1.25-2.67-.39 0-.71-.71-6.65-1.56-13.06-1.43-10.73-3.77-28.89-9-69.63-1.62-12.12-3.18-24.24-4.7-36.37-1.56-11.84-3.83-29.43-5.1-39.14-1.25-9.7-3.35-26.28-4.7-37-1.39-10.64-2.25-20.1-2.02-21.12.56-2.1 5.15-9.46 5.64-9 .15.22 1.71 12.98 3.44 28.47 1.72 15.43 6.27 56.42 10.18 91.08zM57.27 266.4c1.46 11.59 3.35 26.06 4.2 32.1.1.73.6 4.38 1.49 10.95-.98.85-1.53 1.32-1.64 1.42-.92.78-1.87 1.07-2.19.78-.3-.32-.94-3.45-1.4-6.9-2.11-14.87-4.28-29.74-6.5-44.6-.37-2.56-2.22-15.34-5.55-38.33 1.07-3.2 1.67-4.97 1.79-5.33.95-2.88 1.95-5.23 2.2-5.23.31 0 1.48 7.67 2.74 16.96 1.17 9.42 3.37 26.55 4.86 38.18zm425.92-6.55v40.61h-2.2c-4.77 0-4.69 1.17-5.01-43.27-.01-2.69-.09-16.18-.22-40.45h2.49c1.32 0 3.06.54 3.67 1.24 1.1 1.1 1.27 5.95 1.27 41.87zm-124.17-12.44c9.85 5.09 14.54 8.61 25.49 19.09 16.28 15.58 26.3 29.19 35.69 48.43 13.69 28.01 19.02 52.79 25.74 119.3 3.06 29.82 7.04 83.87 7.89 106 .25 6.44.79 17 1.27 23.47.86 13.79 1.86 11.91-10.26 17.77-16.82 8.15-33.03 13.77-54.36 19.02-26.13 6.41-43.05 8.43-68.86 8.53-1.25.01-7.51.03-18.77.08l.15-9c0-4.94.46-16.43.95-25.42 2.35-43.58 1.86-98.58-1.18-129.11-1.73-17.52-5.08-38.79-6.96-43.49-.39-1.02 1.39-1.87 9.14-4.54 14.18-4.94 26.45-11.12 28.33-14.15 3.38-5.79-2.66-14.1-10.34-14.1-1.31 0-5.31 1.41-8.99 3.05-17.53 8.07-52.65 17.52-72.92 19.65-14 1.5-35.76.61-50.84-2.13-8.21-1.49-22.93-7.03-35.22-13.36-14.15-7.36-22.83-17.14-25.42-28.73-1.42-6.25-1.03-18.77.78-25.81 1.95-7.74 7.43-19.01 12.44-25.59 22.29-29.33 68.29-54.75 115.47-63.67 15.03-2.82 36.3-3.13 52.44-.71 17.66 2.66 33.09 7.6 48.34 15.42zm196.13-8.85c.17 21.37-.32 70.18-.71 72.21-.08.71-4.13.78-5.86.17-1.08-.39-1.25-4.62-1.25-39.14 0-24.71.31-38.64.78-38.64.39 0 2.2.57 3.91 1.25 2.81 1.17 3.13 1.49 3.13 4.15zm33.88 40c-.32 38.86-.5 60.45-.54 64.77-.64 82.54-.71 84.96-3.69 92.07-4.84 11.66-4.6 14.01-4.13-37.15.15-25.59.53-51.48.71-57.51.14-6.01.29-23.01.39-37.79 0-17.85.22-26.74.78-26.74.47 0 2.1.54 3.67 1.17.37.16 1.31.55 2.81 1.18zm-475.3 30.25c-.17.36-1 2.13-2.49 5.33-.56-4.69-.87-7.3-.93-7.82-1.49-12.52-1.49-13.08 1.47-14.94 1.34-.95 2.76-1.56 2.98-1.41.25.14.71 3.27.95 6.89.47 6.33.3 6.94-1.98 11.95zM76.35 413.9c4.21 32.31 4.53 36.93 2.65 34.98-.22-.25-2.03-11.13-3.91-24.18-12.2-84.35-12.13-83.79-11.1-84.43 2.1-1.42 2.81-.64 3.35 3.76.71 6.41 6.18 48.97 9.01 69.87zm50.07-8.29c0 2.17-2.82 4.23-4.06 2.96-.39-.4-1.42-7.04-2.2-14.7-.86-7.74-1.71-15.81-1.96-17.91-.03-.26-.18-1.57-.46-3.91 1.64 1.87 2.56 2.92 2.74 3.13 1.57 1.7 2.95 3.81 3.2 4.69.47 1.96 2.74 23.15 2.74 25.74zm62.5 16.11c1.17 15.25 1.34 14.08-1.86 14.08-3.3 0-3.22.24-4.3-13.55-1.1-14-1.1-13.83 1-13.83 1.03 0 2.35.46 3.06.93.85.78 1.42 3.91 2.1 12.37zm60.71-.78c.25 4.93.96 16.03 1.57 24.63 2.2 31.6 2.28 35.61.96 35.61-1.5 0-1.67-1.17-3.38-23.48-.76-10.78-1.63-21.56-2.59-32.32-.69-8.5-1.17-15.64-.93-15.79.86-.95 3.13-.24 3.52.93.15.78.53 5.47.85 10.42zm-140.81 64.55c1.1 10.31 2.17 20.26 2.42 22.12.02.22.16 1.35.39 3.38-1.17-.75-1.83-1.17-1.96-1.25-1.49-1.03-2.02-2.03-2.02-3.84 0-4.94-3.38-37.4-5.95-57.27-1.49-11.27-2.66-21.19-2.66-22.15 0-1.63 1.88-2.27 2.67-.93.46.71 3.41 25.74 7.11 59.94zm443.84 5.47c-1.18 1.73-1.83 2.69-1.96 2.88-4.47 6.58-4.23 7.82-3.98-28.78.01-2.24.06-13.43.14-33.57 1.73-1.79 2.69-2.78 2.89-2.98 1.56-1.57 3.13-2.88 3.44-2.88.25 0 .25 14.71 0 32.63 0 0-.18 10.9-.53 32.7zm-72.77 69.54c-.78.86-1.49 1.42-1.71 1.18-.56-.61-1.34-99.76-.71-100.3.32-.31 1.1-.46 1.81-.38 1 .22 1.25 5.79 1.57 49.12.38 45.47.28 48.99-.96 50.38zm-251.3-42.48c.46 7.36.46 7.6-1.25 8.14-.93.32-2.03.25-2.34-.14-.54-.57-2.28-17.92-4.38-44.69-.04-.42-.23-2.56-.56-6.4h2.44c2.25 0 2.42.15 2.82 4.06.53 4.83 2.49 28.08 3.27 39.03zm-63.84-7.18c0 2.02.95 12.58 1.95 23.53 2.98 29.97 3.23 34.03 1.88 33.25-2.03-1.18-3.83-2.96-3.44-3.43.17-.31-.15-4.23-.79-8.69a411.54 411.54 0 0 1-1.56-16.44c-.3-4.51-1-12.82-1.64-18.37-1.49-13.69-1.39-15.26.32-15.26.86.03 1.7.36 2.34.93.54.57.94 2.52.94 4.48zm37.1 62.42c.53 11.73.29 12.59-2.91 10.17-.93-.71-1.56-3.67-2.49-12.58-1.64-16.14-1.74-15.5 1.32-15.18 2.27.21 2.59.53 3.05 3.34.25 1.74.71 8.14 1.03 14.25z" id="b"/><path d="M171.35 286.05c5.57 2.81 11.19 1.47 14.1-3.38 5.48-8.91-3.45-19.23-13-15.09-8.14 3.51-8.76 14.56-1.1 18.47zm54.14 9.39c7.43 4.44 17.06-1.42 17.06-10.34 0-8.61-9.85-14.4-17.06-10-7.51 4.6-7.51 15.72 0 20.34z" id="c"/></defs><use xlink:href="#a" fill="#fff"/><use xlink:href="#b"/><use xlink:href="#b" fill-opacity="0" stroke="#000" stroke-opacity="0"/><use xlink:href="#c"/><use xlink:href="#c" fill-opacity="0" stroke="#000" stroke-opacity="0"/></svg>