<svg xmlns="http://www.w3.org/2000/svg"
	xmlns:xlink="http://www.w3.org/1999/xlink" viewBox="0 0 640 640">
	<path d="M139.59 95.09h365.98v448.96H139.59V95.09z" fill="#fff"/>
	<path d="M0 320c0 176.73 143.27 320 320 320 176.73-.01 320-143.28 320-320.01C639.99 143.27 496.72 0 320 0 143.27 0 0 143.27 0 320zm448.7-156.71c3.56 22.73 5.99 60.49-49.8 89.17 43.2 11.67 57.64 39.46 58.14 66.82 1.18 64.21-61.16 103.48-117.28 97.21.04-3.24.38-29.16.42-32.4 49.69 5.7 73.81-26.69 74.89-57.11 1.1-31.17-26.21-52.68-74.89-51.73-.07-3.05-.68-27.43-.75-30.48 60.94-4.52 78.11-46.71 70.52-70.15-10.38-32.09-43.55-38.02-72.86-26.73-.34 2.38-2.01 14.3-5.01 35.75l-23.32-.75c1.2-35.64 1.86-55.43 2-59.39 11.43-6.55 34.59-12.35 58.77-12.4 35.35-.07 72.88 12.13 79.17 52.19zM302.5 486.45c12.79-.92 30.07 3.53 45.71 6.03v26.34l-138.73-.09V492c14.95-2.05 28.75-5.47 45.1-5.84v-206.3c-18.4-.31-35.72-4.35-44.43-7.35-.01-1.71-.01-10.26 0-25.65l92.35-.78v240.37z" id="b"/>
</svg>